<mxfile host="65bd71144e">
    <diagram id="HIP3nbAZw_EuaXWnEj3U" name="Page-1">
        <mxGraphModel dx="398" dy="243" grid="1" gridSize="10" guides="1" tooltips="1" connect="1" arrows="1" fold="1" page="1" pageScale="1" pageWidth="850" pageHeight="1100" math="0" shadow="0">
            <root>
                <mxCell id="0"/>
                <mxCell id="1" parent="0"/>
                <mxCell id="33" value="http://ics2o.mths.ca" style="swimlane;whiteSpace=wrap;html=1;" vertex="1" parent="1">
                    <mxGeometry x="40" y="20" width="760" height="480" as="geometry"/>
                </mxCell>
                <mxCell id="34" value="Calculate" style="rounded=1;whiteSpace=wrap;html=1;fontSize=20;" vertex="1" parent="33">
                    <mxGeometry x="20" y="240" width="190" height="40" as="geometry"/>
                </mxCell>
                <mxCell id="35" value="100&amp;nbsp;รท 3 = 33 and the remainder is: 1" style="text;html=1;align=left;verticalAlign=middle;resizable=0;points=[];autosize=1;strokeColor=none;fillColor=none;fontSize=15;fontColor=light-dark(#000000,#FFFFFF);" vertex="1" parent="33">
                    <mxGeometry x="20" y="304.42" width="260" height="30" as="geometry"/>
                </mxCell>
                <mxCell id="36" value="&amp;nbsp; Divisor..." style="rounded=1;whiteSpace=wrap;html=1;align=left;" vertex="1" parent="33">
                    <mxGeometry x="20" y="190" width="300" height="30" as="geometry"/>
                </mxCell>
                <mxCell id="38" value="Please enter in a number and what it will be divided by&lt;font color=&quot;#484848&quot;&gt;.&lt;/font&gt;" style="text;html=1;align=left;verticalAlign=middle;resizable=0;points=[];autosize=1;strokeColor=none;fillColor=none;fontSize=20;fontColor=light-dark(#000000,#FFFFFF);" vertex="1" parent="33">
                    <mxGeometry x="20" y="90" width="510" height="40" as="geometry"/>
                </mxCell>
                <mxCell id="42" value="" style="shape=image;verticalLabelPosition=bottom;labelBackgroundColor=default;verticalAlign=top;aspect=fixed;imageAspect=0;image=data:image/jpeg,iVBORw0KGgoAAAANSUhEUgAAAZ4AAAGTCAYAAAAY4nTRAAAAAXNSR0IArs4c6QAAIABJREFUeF7svQm0bElZJvrFnjLzTHceqoqCWwVVFFOBgE+kQS1BEFpEnlLgo3Xpeg64HFb7fL2Wz7b74eJ1tz0sfS6fLbZiKyAlVTJjWdBIIbQCUooMBRRVUHPVrTufKYc9RLz1/xGxd+ydmefkOTfPueecGwlZeW7m3rEjvogd3/5nAf/yCHgEPAIeAY/ANiIgtvFa/lIeAY+AR8Aj4BGAJx6/CDwCHgGPgEdgWxHwxLOtcPuLeQQ8Ah4Bj4AnHr8GPAIeAY+AR2BbEfDEs61w+4t5BDwCHgGPgCcevwY8Ah4Bj4BHYFsR8MSzrXD7i3kEPAIeAY+AJx6/BjwCHgGPgEdgWxHwxLOtcPuLeQQ8Ah4Bj4AnHr8GPAIeAY+AR2BbEfDEs61w+4t5BDwCHgGPgCcevwY8Ah4Bj4BHYFsR8MSzrXD7i+1EBO6/83vaC51ekhW9dpTGBxGKhSgX8zLAjICIqM+hCAoli1QKOQgh+3kcLidheLqXR93DB84PxLO+mu7Esfk+eQR2IgKeeHbirPg+bQkC6q4XxGcXk6O56L0wEPFNRZA8X0lxjUJ/DipLonBmJgwCRCJEFEQIhL49pJRQQkEJQEG/C5lDylRJhW6IVl8EOBMK8c1QDD4LIT6NLL57/rs+fXpLBuIb9QjscgQ88ezyCfTdXxuBJz7+7GMqDG4q5PzrMnX4pUrJg+0ELSEGiMIMcZgiDCSiUCBAwFlzhfkv/8V3iNCkI4hy6JPIR0KpDJCAkgGkCiFVB4VsIS9iJdHqB0I+GGL5b2Ms/UWB2b/f9+KPnvPz5RHwCNAd5V8egT2GwNnbv2OhGwxuLuIjb5aBvDFSp+O26CEOQ4RhjChqAwG9Y4gwgghaCERk6EYBJN0Q3QgiHk1DKqhuFU0/gFIKShWAzAGZAaqAUsxEgOxDyYJOhEQLGQ5nUsVfDIvF35dz8fv33/iX5/cY7H44HoGJEfDEMzFU/sCdjACp0U6dWfpBqdr/V6bazw2DPIrDCFEiEEYCCIhQCgRRgCAmsokhRMjSiwgDgKSdIEAgSOoxtwX9zeTDLOQMX8tFkPa7AkLlTDhKEvEokA6O3vQ3pEKRRyiKCIVIocIOhOp/PpLFf+ysqA+Kmz6Z72Rsfd88AtNGwBPPtBH17W0rAmdvf9pCN2i9OZXHf77VwpMTnEYU5QjjEEK0EIQRlAiAQECEQBiFmmiCkImGCEXQb3QMk06oSYWIiMiG/q8/tHWHxR+tfmPWYsnH/MbSjvmCpSEt/QgmJE1EUvUgpUAhO8iKq1EUwROxeuSPoyT4vZnnfeTRbQXPX8wjcIkQ8MRziYD3l704BO6/85nHi278y5la+OmF5MyBdou4IkIQErEQwwRMOgERDBFKGCKISNVmCIdIJwig2I5jVWos/vB3yhKPoSGjcHM6bdwMmHwElCKpSRMQqeCIbCAkuSYALA1p6YdJSgookpakRCj7wCBHP71qMc9X3hUG6W/OvOivHrk4dPzZHoGdjYAnnp09P753DQQe/PRzDojl3r/OEf50uxUutFsdABmTCBENE0wYsYRDUk0QBAiJgCLzDkm9pqUbIheWcliNpqBYHcd/8b/191YKiiAUvUkiolfBqjst4ujjiHD4PCIY+p7/ryUegLRpZPOhc8gxQWpeylIgJRtRC1mvQDbAchTlf5q1o7fOP/djp/wC8AjsRQQ88ezFWd2jY3rojuvenItr3hKK/rF2+xySmEiD7DUBRBTzmyQc3v6FYAKKmHBICjLST6gJR7FKLWTiIdLQngXkMq3fmnjMbwgRqFiTDhOPISpijvIOKl0Oyq80DxGTEcMQ4WTaE45IyNiEUEigKCCKAUReQA1CDLKDKMTsaqweemtyYPA74ppP9vfolPphXaYIeOK5TCd+Nw37kY/fcP3K8uF3zs8u/S+dpEDUWkAWkvpMIRSK7TZBnEAJo1YzthtWtfFbq9+0BEPqtAhKEUER8dD3RooxLtM2XqdOPEbaYZWaUa9RewG1QWgSuVjyoX+T+o0UdHQ8iT4k7WQAOReQhMbEQ+8CqkihZBeBVBB5CJEGUPIJpOlAZdmJr7WCMz+RfNtff343zZnvq0dgLQQ88fj1sWMRULe+Pnxw7q5fy8T+X5+dz5MQ8xAUc5MohHHMwgq9wyhh1+ggiFnFRkRDhBLQm206FbEwIYCSEZBXG33qY5k92ExDMTt0jHE4UCRVGemISIdtOloSIuJSIq7O5+80MQkjNbHkxKo1kngKTTr8WfD3QBdKrQBFj6UeFDlEISEKBaQDFNk55Pk+xGr198Ju8a/Eiz/T27ET5jvmEZgQAU88EwLlD9teBB746I3XFGr+HWEkXjIzM+DENVE0S/4DCEKJICB7jnY3I8IJQiKiSNtsSBpiSYbIpSGhEDmwXSeGYAIi9iJisSo3Qyqlmo1sPHRMxDE5WmKyn3SeIS8mIduOIS3NZPxi4hHk1UafmogEE1APED2g6AKyZ+J/Uog8gyh6COV5FAOFbDCHIm99JYkX/0Xy7I9+cXtnw1/NIzBdBDzxTBdP39oUEHjgY9e/rgiufHs7PHMg6SSI4lntGp0UCEOKyyH2MTE25FRA3myakbTvM0s4RBiaiKTxPNNp14h46DBNGNZ9mv9N9htDHtrxwLZjbT1G4mFvOOuYYMiLJSdy3TZtWinJSEBlHBBLU0xFkCqFVAMo1YcgAlJdCPQh6Du5CpWvAPkqwjxFkKdQWRfLS1cvx+Lcr3WWlt7m43+msNh8E5cEAU88lwR2f9FRCNx11wvio2cXfyMP5n613ZYiaS8gIKIJQ0RRjDDSQZ5EOkQoAblMm3gcG4dT81azqi/jIs1Ew0GjtOwdFRuHjJLjgCEj6/HG0o1Rs/ExWtLRkk2oY4GskwIfG5t2XUnKtqGvqUgdiJB83YzthxwO+oBcBYh8MGCpR5AKjt70fb6KIOsiLHqQWYreKmSM4tZEFj8lnvsxOtG/PAK7CgFPPLtquvZuZ0/d+cy5ld7Mn0Wtfa9ptVZEGANhnCBptdl5gAUMDvbUNhvOMsAxOqxrM+ovwsc6EFTqMyud6Ngcciqwx1s1GrlCGwmJicRVqZGEpG1ARDza9qNVbCwllcRkiMzajVxiszYk+iSpiAiIJTJyuqY4H7L/GGcD/kyhFJHOMoBVCLUKyC5QrELki0DWR9FPkA6Cz4fByo90nvWRh/buyvAj24sIeOLZi7O6y8ZE2QdO92f/pjPXel57ViAIErQ6MZI2bfIx50nj7AJGraY91IhEjPRTjtcuZ2uHccnHfOcQj5VgWHqxhMN2HMfewx4Muh0iHZ3dwEpGVsKxrtmaWMr2rM3HsTNp4rHXMGkRrAM2BZ7y3+R00GenA1ksQxHxYBUKq4jkBU0+g2XIvsTSUvzYTCf7/tYzPvjlXTbtvruXMQKeeC7jyd8JQ3/i49ddm/bC/xHMzl4btQTiVgtxu8X2+4A81KIIIeVVsyo1Qzo6j411HGiOxP2tTho1ZwJ7fkk21qZjAkKtnacMNiXVGpEhkQtJO0Q8VuoxDgg14qlLTloaM/3h5KPWpdsGqdrjSQun3a8V+pByBUotA2oZgToNIc9BkDMCeb0NUqi0dw4yfE38jA/+3U6YU98Hj8B6CHjiWQ8h//uWIfDYR6+/YaCu/kQcnb2iNZMgapEdRwd8knqN43M48JPUWjq/2rBabVT3jLrNZBQo7T6lis0EjpJEYh0P6DdDQNqLTafNYaIyzgpaVaclHkWBq9amY9VqRgXHEtKQc4ElSeuKbQnMeMaJxJGUrP2ngBJkA9IOCFA9CHkGUGcRFOe1J1zeB9Ieer35C0Hw2I+3r/vgh7dswnzDHoEpIeCJZ0pA+mY2hsDDdzzraf1s3992ZrtHk3aEuK1tOZZsmIC4jAF5q5FUYbN1jpNy3Os7xOO4QGs36rrtx5IME0wZo2NztWnvNT7HOChoJwZSlznEU6rUtP2Gg1LNpyWr0vZUqtmMhGRiisDEYyWoaow6H6lNtZNByfNQ8jREcQpBsaSdEnJyw15E2sViEBZviK9590c3Nhv+aI/A9iLgiWd78fZXA/DoR599tUzzT4rZuWvjToAoiRDFIQeFMuEElOqGAkKNizQ5D/AGbOAjEjKZoccDagI9nUwDOuLUEE8Zp1MFhGqJx5ZAsN5o1t5jnQdsnjejaqNzmJjoOC0JWe85rdarJB2239C/+RxHXVeSDgWj6vM1sREZJabPnF0UwBJkcQbIn4CQZyEkST4XgPwCkC0jWz1zHq35VyXXvPdzfrF5BHYqAp54durM7NF+kSPB2fzIpxfm0hujmRhhEiJk4qEgUE06ISX3pFgdSxSOz0BJDJMQT2m7sXUNXNJx3ZyJyKzBn4jHUYuVRGXOZbWbdamu3Ka1pxz12bH5uLngtHXIuF9bArR2IiKXVklGWmpqQaANiBltS2JCopeWblRxBqo4BRSnIdQ5iHyZyafoP4ruyuHHks7iTe2nvucbe3QZ+WHtcgQ88ezyCdxN3b/39qe10tXk9v0H931v2OqjMzuHIA4RxZGWdij7gMm3pm051knASjoblHhcMmFJZoS045JMWdrAXteVkOy51W+WbGywqSYMTTxWpUffae85Go7jRGAkJC3RELFQXQeKMTKSENoQTDqzYDUcvVlSygFBsT6kZjsDmZ8C5CmIfAkiPwcUjyNbWUbaDb8kW8XLFp5+y5ndtEZ8Xy8PBDzxXB7zvCNG+eBHrn2bSvb/bHsmRdTuoDUzhzCiUtREOianmi1TYG06TtqZyVVtxsZT2mwsYVm1WeVdVpNuSkcDo36zyeBKycV+P458rLRjpDXHmUGr2QSXVqhS7libDn3GHC/Eb84j14FAB6BPJiVzrHF84GzXchFQZ6DUKajsFJCfRsDk8yjSlQGCrvzL6OzJH/IZDnbE8vedcBDwxOOXw7Yg8NCHr32zaB34/dYMELUiiCRBq93RdXJMzRxdkI0M+rQ3G4lHywqN0tPmu7LnzWXcJB7zey2extp2rCOC63XmEE+ZOseVgow6zsYEkW3HZkUwUo/NEce1f4wLNUk+2hXbqvWs95tW0UlO50OSFRFPoiUeJh8inpYhIBszRH0gyYfcrIlsnoDMTkLkpyDkE1DpIvLlDKqQ/671zHf++rZMsr+IR2BCBDzxTAiUP2zzCDxy+4kX9eRTPzE/e7LTmd8PKQKECQWIUmlqXYqashBwdgAKFC3rTbsBoeOWqiUOt38jvNq0rku/rX3ITSBqXa9tZgJWa7mJQ93koJYIbWJQ6+VmPeasu3blmMCZEWzGgzIzgiURE1TKRGYTj5JzRQtKEPG0AUX2HlK/2aBV6h9lPUg5vgfqNJCfhMweZ483UZyBTE9j8czcYKa1dHP7hj//0OZn0J/pEZguAp54pounb62BwL23P20hDOe+kESDa5PkSiQzEiqUiOMWklYCwfnXdGJPW4Jac4RDKO7fQwhPQjz6JJ0c1HXHrlRnnJXAqOa0TcYkHK25P9vsB9Satf/YINBK6qkVmHMcDHReN1fVVmU80Cl0rH2HavlQgbsWFNu9qMpq20g/ZO+x5Ryon1Trh8jnHEAqt/wxICPieQKQj0F1T2Fpqf1wNBN9+9y1tzzhF6hHYCcg4IlnJ8zCHu7DQ3c877+raP4n2kkfYauNqKU4LCdOYkRxm8sZaNKxJaiNGo3IiNnCcW8eidNaxGPaMsYhnRXaliywjRnJZpR9p5baxvV0qyQeGyjKNX4a9X2Y5KjgXBk/5EhE1v5jA00b2bF1pmzCht7k8daGYi83+lvbhKpCdUQ+q4C6AKgngOxxKFK7ydNAdhq9lR6C/MIH2k+//XV7eKn5oe0iBDzx7KLJ2m1dffiOG7+/ENGHWkkrjtshgrbksgZRbGJ3ItpIKRdbhIA2Z0s2rGpzR+uQC9WTZgnIvsYRT5107NFlgbeh85s2HsemY7NUa+OTiQW1UpGWWnRxORODY/LIWclJX9OVUqqM1zoGyOZ3s5/WLmSSigZU6M6QD8f2kL1HOxuU7XJVUyKfc4A8CZU9DuSnUGRPQBQnka/cnwlx4EdbT739vbttHfn+7j0EPPHsvTndESN6+I5nHexnxz7b6TxyXdLZj6idICYtEdl3yJONXKgjepqPoChuh1VgNkh0HeKpEdMo4nGkmZFouI4LLkEZdZvrYl16kbnnGCmpLLdAajbtCl4FjersBbo+D/XR1uqpVHRVaYbK1qMdEfTx+k3Hc6pudqlWpH4DOR4QEREJRRDskm1Vbiva3lNo8lGkbssfhuo9gO7i0fsWou53iqd/2LtY74i75PLthCeey3fut3Tk977vab+VtBd+uTM7D5HkSDoB4picBzThkFMBBYxSpmmO2al5rq1HPFb9NlqqqUtD44ZpCIvvAMcZofa3635tj3dVbibvmuMUUJbJLssiWCeFyn7jxvloVd0IiceRgthjjlVu9NZxP5IDTLWnm1JERNSOzmoNdZ7drJE/CiUfhKLP1dNQ/WX0e8u/P/fMv/n5sh7dlq4C37hHYDQCnnj8ypg6Avf/1fNO5Fnni/s6ywth+wqg1UecKCQJkU6iXaiZcAzpuMRT2nSoW/wP0z9r85lE1TbJkJpL3yGfMmu1SzZuRoPhOB5d2VR7nFXkY0nHqNPYblMFperaQDa3myEfjvOxqjgtJWnJyOSG4zRCJPkkUEQ8HGjaMUXsqF+U142kHqNyK74JIR+D7J1CkN6PpQutpQDixfPP+vDdk6Dkj/EIbAUCnni2AtXLvM2H3v+Md4vWiR/tzGQI2wOIWCJOQsSxJR2SdNxs0+6mbyUQl3TMd+wdYL4vV+5aqjZzuJ2PNVd7sx0r2Tg1c0rbks3X5rpPa8mlmauNi8eVWauJXOg6moB0glJLMk71UiIoo5qz5bptbje26bDNJ4Ei1RuTjy4Nrp0OSOU2ANSSlnqK+4H8AUA+iLx/koqZAiurf9m58Y4fuMyXqR/+JUTAE88lBH8vXvqxj1z3DEB+FbNHkLTb6EQ9gPKwxTHimEoeUG0dU8DNSjzMK1bdZlApeceReMixwH2VbtZjlnHteHNuzTHBaUxRNVBjZ2J6aNp07DWMc4EhDR13Y8iFXKApc7Wx9VSZsB0pplaxVJOQje+xdh3tWm2rlZpzuYSD9pwTrG5rafJh+47JcAAiHxpDriuWqkVAPgDk9wPyIeTZGcjBeajzp1AkM8+fve6vvrAX16Af085HwBPPzp+jXdXD+257zvtmZs+8Lpm/ElGrg3YiASKbKEJk0uIILnVgc7G5pasd247lGGuDYXfnBvEwMvR9RRilZo4OdYmHgi1LycdZ9uUx7q1AZRH0v2txPy7ROcXhtFcbORFUqjFWo5W52VyPtip7db3kgj6/dCgwVVFZgqpJRSZrNTkWsKeblnwomahOKkpOCDT4TJdMUA8CBb0fAIpTSFcfQtB7FIvLV3zk8PPe/5pdtbh8Z/cMAp549sxUXvqBPPbh62/oZie+kMyfa+9vh2i1QxSUHicMuK5OGJLLtMnJZoJGSwKyJQNYm9aw43C2gXHja6rI7JImlZN7DjOR/oIJZGyDOvu0Y1vS5GNelnyIeNhCryURYXKtWZLQ55iUOGzbsaUTSB2mVXVVzZ6qcFwZZMrxP7YOEElFREo6fkcHoTqebeR0YKQeHedjHA1I5YZHAPWQVrllD0CuPASpurhw6rCM4u4LDjzrtn+69CvH9+ByQ8ATz+U241s43gff95x3dmZm/0XcyZEkIYIkhIpDnYst1h5spGYj8uGgUXKndr3ZrBqMpRDXs20jxGMGOJZXXAIaAUZN0tJ543TQqZWutGMBkU6lYiNpJTaOAiSRkARE57iVSI1U1CyzUJbO1io3xfYdk9PNEJZOHkrkZiUiupaWfCi7gc5e3QYCk16ntPX0AHEKUCeB4hEgfQjoP8xBpUV3CUvL6taD3/aJN2zhkvBNewRGIuCJxy+MqSDwxAeffSwNT3xrLnlwJqQS1iTpxCEQU9yO9mIjdVsl8QQQHJvipLBxhJVKwrDCybilOsa5YC2Bht2OrQTjDH/IhuQST2VrYmnIlsNm24vjeVYSiS0Q52YrsHE+7qdr47HBqFpa0kRD9jBS4elCc/o7ymStP7lYHJOPDjDVb0oqapKIirNcNgEFpdJ5FEgfA9LHgd6juHB+YSmOe9fPPeevfSqdqdwFvpFJEfDEMylS/rg1EXj4fdf/qkiO//u51gVBxBMw8QQIKBcbST1cUZQSglpVW6iDIm3cTFP75a5MXf95zPW3kHiY86qaQDp/HKV0s0XkbJJQnRpHuzw72QdcdZux2VR53KgNY++xdXxMih4KRmWpxwaTGjsPB6OWKjct/bAk1CQd/jcRXwHgrA4olSc5hxsGRECPQ3XPoL8aQxSL/7rz3L/+9355ewS2EwFPPNuJ9h691v13nminF/BP8+19T5+hIPu2lXgM8USaeHSwKKnebAyPLRFg7C41ZwBDNiON/y6QaxHPEHuZE+UwjznXLoWlUr1mC7ltjnhKtVuZiaDKWm0JRmc4iEw8jpaWysSh1lGByaRSt2lbj7H7mJQ6ABWPI483IkIqGqdr9pBjAZXLxoBS6TwBNVhG3l2GXDn5jVY/fJ548Wd6e3R5+mHtQAQ88ezASdltXXrgA1e+eJBEf3MwmY+SMEGpaiNpJxI6YJRKWbvF3ph8bFzLCIlmSO22GYlnDPGw19cIXZwhH/7VnKoTfVoPtzHE46raSg+0qqxCmauNSy24aXUqyclmMNDkQyo+o25jYjFSF5NJVTahJB2SkNjFmjJYG1UbORxQsThQPA8Fk1IanTNARklET4ICeiiotFh+MIOcfUnyvM/8/W5bd76/uxcBTzy7d+52TM/vee/1f9BaKH5mLuwgCVts32EbjyEeknSYeIxHm3UuKDfhUSOxnmd18WPEkZtQtY0jHtajUTyPKaFgHR8UOQo4two7F2hiYM8zVblS17MWGAcEbieCsJkLSvVdldmA87qVqXNMnjfrZFDGOFnvOF0sThMP5Wuj70nKIeLRReM4vQ6PZBkAxfOQ1HOeq5Qio/xtixD5GRTLD6O3Ovv/zb/gU7+4YxaU78ieR8ATz56f4q0d4DdvvXbfeXnwq1ccXr6yE7YQRUbiSYh4BJMP23koLxs/sVdebWsTT1Mo2aDEwyTSGDvbZug7KqDmHmDdrLUnt/aps8fqxKE14gmMRMKxPNohQChdupqJhyQkTgPUeFtph0nGloHQ3m86DshkLygJyqrWbMyTU7/HquYs+XD8jiEdIiPO60bSE8XyEPGQkwFVKj0NpCc18RSLkKuPY2nx6Lf2p48+26vbtvZe8a1XCHji8avhohD45nsPvbwXXP3RI3N5kNis02TjMcSDUOgKoyOJx1W1NUliCsTTHFm52g3RlHYdihtyeIqZp/JiqxEPC1iWeEwcD3mblcRDqjmdmYFVbGWmaeuk0FC1WXIy9Xi015pzDNt0nHNNPJDN4Wa93CqJR2ex1m8isj4gHeIhAsrJ0WAFyBYh+2ewfL5TJOGF7575tjv/9qIWgz/ZIzAhAp54JgTKHzYaga//xcHfac8e+KW5cD/iRCAk92kiHnKltqq2gIjHOBSwgdxKPZZ4msvQFVUcAhjZhTGqtiHSGWfTaZBOed4I4rHkZIiHpCBbqno08VBjRD16nOwNx2l1bAkIp+6OrXpqqpTqWj5u+QUbcGocD8rkoVbN14IITbJQJh2SfkgNR9mql4GCvNsoa/VZ9mpD3oNKl1GkF5AunkeR57+18ML/+St+nXsEtgMBTzzbgfIevcadd35PdMWFk3cdnBs8N8QRyoyDMBHsSh2RxBMKgNRtRuLRLr4O8ZRP841lODYn2ygg1yIeh2zGrnQd0zNMS9UJWmrROdp04CgRjlaVlao2qyYzBGLLbNuS2jZvG6vUDPFou07dzqPT79g4HkM+NmaozOumr1/mhOPMBS0ICiDl3G22Vk8CKJJ4lnV1UnkewDkj8axCZcvI0kVg6RH00gNf3PeCFz1fiLc4QU57dOH6YV1yBDzxXPIp2L0doGJvvXT/tw53Tu8DFph0wlaAgMofcOxOAFfVVhGPieXhp/ZGhgJmgQYNlDnSNkM8zTIKzTYmJR5DcEQ2JmsBqeMs8VSSjM027ZZRIJKyhFKV2iYC0gRmJB/X643Ipyyj4GaxtslLtX2pVLkFiZF4bCYDI/Fwpmqy8yxp4iGphwJKSc2WLiFLlxGtPo6V7tFz6cz5pxx91idXdu+K9D3fLQh44tktM7UD+/nAB597UxEc/cSB+CRnJQiTEGEr5IDRinhIzaadC+rEY/7tBobWUuYM6coaJa/t72tJPPbhvVlYzpzLBLeeqk0fq1Vfph3HxmMThLJnm81KzVILOQ3Ui8ZpkiL5SX9fkY4JJmXicRwSbMocOoelHludlE63WQ5MlVNBcVJtQNnyCGTfob9zKNWD4IShRuqhuJ7sHGS2iDxdQdy9gOXuYUqt86J9L7zzcztwqfku7TEEPPHssQndzuF867br3hq2r/r12WgRcVsiSKj8QYSA0+RQihwdx8NpckIqca1zkPEGbdRH4zMSbGQkY5bxxa7uWoo46yjgSjymAim7U9sca9ZjTTsX6GSghmRYQtH/rnm8WYmntOvQ7zbVjkPYJUlbctKkYzMacPocWxTOlGfga6kcUF12MlDFIlAsQxRPQGZnUKRLiAZ99FZDSqXzG7Pf+fdv2Qjy/liPwGYQuNhbczPX9OfsAQSUgnjw1qd8LJy56uXtJEOrnXLNHSIeSpUTshs1pcUhG49xpbbJQctU/07W563AZFztnU1fy3qXEfnoQm5saynT29igTysdaclHJxklN2udXLRyHLCqRv1bJe3YwFKdn632vZG/rCu6zWBtsxgIDiKNdLJR676uyH28D1UsAcVJXWAcAAAgAElEQVQSVLGMoDgFRfV50iUE6QBpN0OQnvlE8qLPvWzT8PgTPQITIuCJZ0Kg/GF1BNRbEDzy7KfcJ9pHrolbATqtAcKE6u5oSccSD/+bNsCyBo/JZ2btO1sJ7FYQT1kgzmSpLiUTTRY6SNTG8hhiYU8DK8FU5FV9Z1Volf1GS0RuwKjJoFCWZbDXp3NsqQSTNJQcHcrM1tSOBOSAnQws+QTFaaj0PJAuQ+QDpKurQP/CA60Xf+aarZwS37ZHQKuu/csjsAkE7r39aa1Wb+XxVufogTBOEHcKU/pAB4zuTeIxt4xrhzFOAzYfm1W5aS84h3hsQCmTkLX92Bo91q3aes9Zu5WuOFq6VVd5fMx3JHnpFDqCA0htJgOnoBzbo0jiSVnSYeKRSwiKs1CD88CgC5H3IPsXUKyeuZBE8VPEiz63tIkl4U/xCEyMgCeeiaHyB7oIPHbrgSfnUevBTvsAgngGcYfShZF0Q7nZ9jDxWI82fmazhdpMsChnE2hmK3AdDBq2ndKV2hKPPZbIydp5bAVSe66ZBeOWrt2xTbmEMnsBZSywJbnpdwXIFIrcqnOtbkNxDkiXgMEAoliB6p9B3j2DImxdPfOizz3iV7tHYCsR8MSzleju4ba/ecvMC1ut9udnOkeAaBbxDHmzUcQ+adX2MPHwnFaxNzaLdJldQGnXaa0qc6UbK82MS6XjkpJ13baebERwOnVPqaSwxFM6JujCcFQGu8p+QI4HdI4mHla1MfFQQOl5ICP1WgqQw0F6CtnqE8glnjf30ru/uIeXrh/aDkDAE88OmITd2IX73tV53ezc/vclrQMQUQfxrM7NhkBddsTDJGPys2lHA4dcSrUaEYdOpWMiURuZqu05loAa5MNk5r6q0gladUf2HatuIxsP1eoxdiByLkAK5CusbhMk8eTLQNaF6q+yBCSycyj657Hc67/q0E1337Eb16Tv8+5BwBPP7pmrHdXTu/9k/68c3D/3X+K2IZ4ZUrHtdeKxt4vjLFDae6xqzEo5TsobW+xuSApyCco6GFipxm3PkaB4FVTSk5ZodLbqinhMkbhS4lJQKgNIpUYSjyTi6UEw8ZD0QyS0iKK/jMWVlZ86+vIvvX1HLTbfmT2HgCeePTel2zOgf/ij47975ZHWL0St/RBxGzETD2mE9rLE45KC9kCrBYGWyT0d0igrrDq2npoKbpx0ZMnFuly7klLlhKDdtSl4NQZVLtXkE5ls19rtm0s9UCwPEY9xqUaRAlkPqn+Ba/OIfAVZv4sLy/3fuOL7PutjebbnNrpsr+KJ57Kd+osb+Of/6MQtTzocvDFqLwBJC3FHsMf03iYeK2048TxGraYLxmnbTy1Wh4NH3SwGmqyItMpsCJx3TRNL+R3bc6xLtSUtO2eOVFVmUTBZqU12a+tdZ208ShaOjWcFKPLSmw15l0koH3RxfiX7oytf/jc/fXGrw5/tEVgbAU88foVsCoF//JMbPnTF/vw1UYeIJ0HcJkmHNti9LPFYqKxzgSGRklhcx4GmY4H5t84eahKBNtLqWFUcf9LLJR7zlY3jMW7ZmsRMVVIj7XAwaZntWp9XSjzsXEB2nQzI+1CDJSYdUr1lgx4urMjbrnz5x2/e1KLwJ3kEJkTAE8+EQPnD6gh86Z3P+ejRhf4rws48FMXxtCUiJp7LwavN2ni0NKMzE7ikY9Vjrgu0c6yRePS5Jlt3LY2ObrMsmc3QO7eqKcfNUhL/rd26KR0RVzHl2J8qWSnXVGVV2ypkTs4FJPFY4lnVKre8i3wwwPmV/CNXvfyvX+PXu0dgKxHwxLOV6O7htu96+42feNLh7k1hZwEqjhG3Cs7PRk5be9+d2ibpNPnYypxsbsyOWwjOEEnpEm0LzbkOCCaHm5GISgeC0nXbvVWtx1sAadP1cIE4EzhqynFrd24iMEpeUJTEQ95tbOPJyc7T195tWRcyS3F+Sd5+xfd97J/v4aXrh7YDEPDEswMmYTd24R/efuMnrjq8YognQdTKEUURgkAgDMnRQJdF4JQ5NlcbFYPjJKFuUOQWjn7qKXNsX+tqtCoZaDNY1KjUuDKDQz5DyT6rmB+dQNTE7FgpqnTJdq7PdiEjFZWpdWzGAushp+N/OAm3zAG5CkUu1Tl9Dph4KF0OE09K5JPh3BI+dMUrPvraLZwV37RHwKfM8Wtgcwj849uffceVR1ZeGbb3saotTDLEccLEE4TkaKCThO5N4rE51awKzM2x5sThsOHfEonhExZ2qgwFthCcziJdZbMeJh83VbZV9enCdFxcriQfiuHRSUl1sTjt1UbEowpNPCi0dMMSTz6ASLtASr9lOLMsb73qFZ94w+ZWhT/LIzAZAl7imQwnf1QDgX/64xvee/xw938N2/uh4hbCJEVE2alFgJAqjsa6Dg9nqx6RJJSj+20J6K1Cd8sknhHEMzJLgVFzlc4CttJp5VQwZOex+dickgplFoQSJys9VRmttVu3JiBbmVSr64iAAPZqM8RD9hyVkc0nAzIinhUgXWGJ5+xS+vYrX/W3P7VVU+Lb9QjYxzWPhEdgwwh88Q+v/qNjx/C/h+0DI4hH52tbS+LZ9cRTVk51YnvcLAUNInJrqpZSUDOep3SxtrW4627Y9UkyMTplzjids60qFqftR7qMtmAbj5Z4VqEKQzxEPqRuI+IZEPEMcGFx+T8e+4Ev/OqGF4Q/wSOwAQS8xLMBsPyhFQJf/sMD/8+RY3P/ehTxsLqNJZ4QQTzaxrO7icca992AUrfUdV3dRqhVxKNvOZd8dAnsygOO7EGK1GWG3HRsz/BLq9LoKPJmMzniynITNojVtE3EQ5JOTq7Uq1CZAvKCpRxByULTJai8hwvnzv78sR/8xn/1a90jsJUIeOLZSnT3cNv3/MnCj88f3PenUfsAELe1qo2dCwJt53FVbSOcC3Y38RhlQakqtARkVXCuG7UmnYpojEcbHUIBp0OZDapbkpJKs1OCvQ57CZiXISsdeKrjfcrkpNaRwY3lKUjV1oM0xCMzABlVSyggskUgOwNVXMBgafn7973qgY/u4aXrh7YDEPDEswMmYTd24d53Lbyos7D/M7FJmRPEKbtTR+xSrfO2saqNSmFfNsQzImjUSDuaMsztxn4CRo1WZpyuXKSdIw1laVtRebMyaWlVm01KqiuRGgJyyIwcDziMh208FK9jPNsyAUrfplIgyCh32ykU+Vnkq71nLLzyga/vxjXp+7x7EPDEs3vmakf19Ju3Hnhy0t7/YJzMI4jbEEnGTgUxqdYoCTPZeKxzARFPWf5au1PvTYnHzU5g6cM6GDjqNuMGrY9w1HI2GJWDR5UuyeMo6eoLwNYAqgJXdUAp1eap+sHEY5wLrKqNbDxa2qHCpAIBJwk9DVWcRy4HR+e/677TO2qx+c7sOQQ88ey5Kd2eAd31By+IDx974kyrdWghTNoQccYpc0riIdIh8iGvNiaekNgIgt4myn73erWNU7U1bT918nEdDKyKjW9At7hcWWWUqId0bZac6uWCK5uQo4org0jNGuDccRHbi7TE02eJR5Lkk+ZQqdQSDxPRBcjBE+dmvucbh7ZnBfmrXM4IeOK5nGf/IsaubkX4QHT8oaR97Mo4aQGxRBSD0+bUVG1k94msS3UVQBrQJklu1lv52jJ3apd47C3kerfZv+3grENBc7DaaUD/2kgE6oTt6GGwfq0SgGqxQDpDgbbxmKJxLOaQVGQqkUrJzgWSEoIWfcgsgxwUbOMJigGXSED/5H3t7/36dVs5Jb5tj0C15j0WHoENIqAUxDf//PjfdxauemHcCoBYICLy4aQEFERKVUgpgFQTD5EMSz5G2uFNckcSj/ssZmUUs+mXGFlbjeMcUFJIw9Otzj0Oyi5haZtN7cXNjHsurIiNeyisR5tNweP2QRepU0w8fcic7DwDyCyHTDOoAREPBZLmCHuP/I/kZV97xQaXgj/cI7BhBLzEs2HI/AkWgfvfedV/DRZO/Fx7pgdBQaRxhiAqtG2HVW2RIZ/YOBgQ8cQcUMrR+6wa2gCeG5RghvZywyOcIKCu92oQgulU6UVmicclIip6Z8tRN8sWmObGjs2IM7XxuESkVWxayBntSq2Ti+r+sKMCSzamT2XBOe1Pxyo7Ip6sYElH5Skk/Z3mAHm1SSKkFrDyjbfOvuJr/3YDM+IP9QhsCoGN3PabuoA/ae8i8OCfPfn1xdw1t850ziOI5kCebZp4BESkJZ6QJZ4Ygt5BhGBd4mGjxlReGyOehgTCO3pT4rH/NmSwHvFMOoqSgGwfjA+bm1TUUEzVZEU8OpN1sxYQ8ZAhHioEJyXAxJND5jkUvdMcIpNs4xlk+yAG9333/Mu+8KlJu+2P8whsFoEp3eKbvbw/bzcjcP/7n3cix8JX5ztnOiLehyBKEcYKIqpytVEQKanbQiYeqpCp7T0k8WjPNpdopkc6zBtN7dWaEk/TLrMO8VhVWM0delqzqW02ldjjqvqsY7Xznanvox0ObCCrloWsXYhVbQ7xiKKAGlAxOCKeJaz2910I1YXrFm765JlpjcK34xEYh4AnHr82No3A3bc+M4nj/ffOt089WUQHEcQ5glgXgtPu1JShmrIXaKknYI82rWojuwQ7GLi2jA2q0tbr+EUTTyllNPVyRuIpJZJp30aGeIYknnEjJicC/dIVRxv9UQqyIIknZ4mnKDIEudRqNpJ45HksdufvPXR27hni5tuK9XD1v3sELhaBad8xF9sff/4uQ+Drtz75L+Zmgx+OkkMQkSKP6Yp4LAGRui2MtdRDEg/XyA40AfETuo5mGW9M32pQRmzW5SWN1KA7ar5tSiNb0L8hAnGlHrcvHPFjCseZ712NHbORgiqkVrORN1uRG+KRCHJKnXMGq6u9Pznwii/+5BaMxDfpERhCwBOPXxQXhcA9t7R/rD1/7TvaSUi+1BDszUYSj02bIxBSuQQmH0qpYzzcOKZnDPFYyYcf48d6Aazf77HZr5022Y6zHvG4l2qSz/rd2PgRVuW4Vr+qVktpx+R2K0dE3tfGTiVzY99h54ICIi+ANEeYS2R5iqL76GsWXnnvRzbeV3+GR2DjCHji2Thm/gwHgXs+PH8Y2dPv2zd7fl8QzQABkUyAkHK1sYOBMGlzSO2mvdtYzUYkRMGNbONxJJ6mus3NT7Yh5J3AyqHz5HBLY0mu2vxdVwMtAG3R7cOBn7aL65NPpWbT55TpdUjSIfyMqk2lGQoKHM1I7ZZCZAOEMsNib+40goeuPXrTV1c2BLE/2COwSQS26M7ZZG/8absSga/ccv0HDu3vvzaIFiDCDsfxRAkRjZOzjTNVRwiJeMi5IAiZeLhW9pYQj2tkb8I6QooaS3CuGku3U3HCVt0+2t26lt9trZVRelyz47QjCpE3m/ZoY1Vbmpn4HXKjVgiLAYJ8BedXoluPv+qzvvjbrrz7dment+rO2Z1o+F5vCoH7bj3y/a1O5y/jZF8QRB0IKn+dWHUbebjpSqTa2YCcDHTwqFa7bSXxbHx5N7buqgx1A5ktt0k5SQrWnRSWGptkakiHCLWQKAqK26FsBVrVpvoBQpkC2TmZZfmr933f3T4j9bpA+wOmhcDG78xpXdm3s2cQOHXrkblBK/lmkBw+GkUtlnjCmCQcsvPYhKFEPFriIUcDnbvNOBgEVtXmqpjqT+6bAmuDqrBh0jHyTdM9zko946NQN9Xd+klUk2fCZkptnA0oNQ4FFLtDEg8RD8XtkHPBgKqOUqqcBChSqPSRk70gus6r2SbE2h82FQQ88UwFRt/I/bdd+cdoX/OTnSTVtXg4QaghHpJ0WNoh5wITVEoqN85YTamst5l4XMIwu3u1xzdvCZudoEkLrs5tUobYyDrZCPEYwjEBoxxQyio2k7GA0+XkbN9h4klzBGmINI8hswf/8OD3fe1nNtIzf6xH4GIR8MRzsQj68xmB+/786merznVfnIueCMJWR6vWKH6HY3i0rSck9VoYaqmHPOA4hxsFkhovLk6jYwF1lubIR/8JNvtREg+1FZiNemwT7m2xBvFwV11362kuho3cmoqDZW02a7YPGRdqlngkuVJnnCKnGGjJJxoMsJrtzwJx9tsOfe/n755mz31bHoH1ENjI6l6vLf/7ZY7APe+57q59M90XiNYRiJjUaW2E0Zyu1RMphFwgjmw7VDAuZnsPQpJ4jPRg7D0aRqM/GiId8tTSSWLWdbUeQTxanTYBabkxO+NUbVtKPBtcTMIqCvXYKGBUKsn2HYrfofQ4MlPI+pSnLUeSncZyr/WFK179pedv8Er+cI/ARSPgieeiIfQNWAS+9edzr49nT9zaTgAVJUDYgog7iEjlRpo1zlptpZ4QYZLoDNVhwG7VlFi0clE2kkYtJQ1tquQKbd60sZYkMsLteMTqVnyufa1FQE68zo4nHp1U1JIqSTvkTMAElEnIQQ7kEsUgQ05/K4VsNVMie+JNR/75t27xK9gjsN0IeOLZbsT3+PW+9p6nf/3AzODpQWsBiDtMPuRoQHE9FfHQ35EmnoiIR8fzUPApqd109ugAgkUhKt1spR9DOII2VUn1nHX2ZRMEOrSYS4nHEAxJBVTPgb/Xkg9v1kNS1U5QtW1kobjEIyFJtUYqNiVREPH0KRmo4to72SCFLBSWLoT3YgE3XnPTJ/sbuZI/1iMwDQQ88UwDRd9GicC9t+z7kbkkuS2cOQzE80CUQBDpEPlwuYQQYUCBpRGipAUVRVBEPlyvhz7J0cD+jzIbRI7azZF2HOIpiaMhwGhBxVGtlcZ393tKOFP5Lm/InXrHqNoq4pGy0Co2I/XkaY68lyEuQvZm66/0kA4yer/pxA/907v90vUIXAoEPPFcCtT38DWpMunDwZVfDNuHnxUnRCozXCSOPN0iSqfjqNqiVhsIEyhj6yH7D8f10JslnggBYl2dk1mESISkHfNmiYc2WQNoSTwNiYbtH5aArHrOEI753tqMtPDj+LiVqr5RkzapvWirJ1wTDxGOlDlLdSTxcOxOViDvphApFR7NkPZTYHDmvuNzVz9D3PTJfKt75tv3CIxCwBOPXxdTR+D+9xz9Icxc8/5OvAwR7Ydi92odSMpv41IdJZp4SCoilRt7uVEZBVPCWYjEEA+p20jtZomH9ssCUPTpRFpyehg7HKIayYGVmnQqwtGl06z0VP3mOiyQmkqUtp1Rt8lOIR1NlDxaJp5CE09RoMgLdqEu+gXyngK655EXc0DvW6+78nWPfWDqE+8b9AhMiIAnngmB8odNjsCdd35PdPz0/f9zYS74jiA4jIBtORTXEyCi2jzsUk12n7ZWxVHQaUyf5AlHLta6fAJEAgF6k7qN1G4k3RSAIAM5EY+19RgSMHnJKvtNocmHiEcoCBZn7L/pfGm842RJTvoYcxyT2LhbZCcRD/WfHNhI2tE2npw82TKJPM2Q9SXyfojZ/iNYWs7/7klf/uZLxVtqXhaTT64/0iMwBQQ88UwBRN/EMAL33HLgpTI4/rF9c2k7oJIJRDLkPR1GJflEMeV1IxtQG4JtQUQ+CVcqpWSjEG1AtHQNHyYekmismo3+tpKPkYTYtlGRkRIV8WgJxzgUqALCOigYMqPfucCA9ZTjT+dVq0Zq1HFbmrlgI6uKXKeNxKMKUCbqIqPs0wpZqpB2ewjzVawuySwa3P8dV/3IhS9spHV/rEdg2gh44pk2or69EoGv/Onx352fxy9E7SsQtue1rScMEHNFUnq3IdjrbYalniBpAZxyh4inBQRtiKANBarjQ7Ye64FGajBDQiXREAmZd0lARDwk2TTcsJmECgjo35mUatKTtR053gpDxGNLS2/lhE8Sb0TX18RTyAJFQfE6RDrkzSaRDig5aA9Z91GsLg5+67o3Pv4rW9lj37ZHYBIEPPFMgpI/ZlMI3P/+E/sxWPxC0L76RDIzDySUp43yuGmpJ6KEohxkOsNqN5G0tfQTxlBEPGEbCDrghG9MPCHnHtOLVqvKWF2miECIdDL9VjkESUOK/pasfipjf0jSIYnHkA+TVfm766ZtCcsMfRTxWFS25C7aiCpPopA6EWiRp0AKqL5E1k3ZoSDP+uitfuMbM3nygqM3n/alDza1mv1J00RgS26ZaXbQt7W7EfjWLVe8NIuf9snZzmoQtmfY1sOu1FGL3alDIp54FkHc0eRj7D5MOiGRTofVbUw+5GBQepnpOBUtrWSaeAQRTUpRkxBEQAURkbXlEAFpNZ1gknK94wzh8HdW+mkQj52GUULIltxFkxOPtu9IZCklAKUsBQWKXoZ0pc8OBT15IE3TB1/y1B9++PO7ezX53u8VBLbkltkr4PhxTAeBr73zmv+czF/5f3Zmck6lE4RULK6NpJUgJBUbSzwdhAkREDkckMrNSDvhrCYeerNrdchRPrwtWyIh6UaQYT2HIL9hmUKoFEr2oaR2RCC1WuUJR8eR91fuqNns7/Tp2o7GYGAJqIwVmg5W9VYmU7WRMDbIC1DMDtIMqp8jW+2h6PfQ7bbRX3ro397wYw++dSt66Nv0CGwGAU88m0HNn7NhBL767hv/buFA/J0UKBolsyzJxK0QcasDquHDxBPPIEhmDPlQotEZIJwHBEk99J7VAaWUeYBtPFadZqUXIoyBVrHJPqRaNeo2QzzsCUdSUKrtOywZkRqOztN2H/6d1XEkRZEaj4a61m0yuWSyYdBGndCIM6K+5ZnEoJBI0wHEIEOxmgL9FGlvEeeW47969hu/8OqpXNs34hGYEgKeeKYEpG9mbQTu+8BTrxZS/EO7vf8IOxQkC6ACpElnhm08ImojTGZY6uHs1vEsBEk70QIQzACC3vu00wGn0qGU/2TMIPWaVanRJxHPgKUdqJ75XTsdkC1IE8qAbUBKGeJhycmQGKno2F1bEw/TzlAQqSuJXFriKaRCOkiRFgUXeCtWehD9PvpLPeS97iOBSp579c13n/Pr0yOwkxDwxLOTZmOP9+Vb77nyNWl47LZ9c1FLhAfYy42yF8TtOYhAe7eRxMOOCOzpRuRExDMHsMrtoHGxJtdqzoAJSCPhsGMBEdEASvVZ4gF9MjFZbzfztxpAINXEw2RkPeLo/HSIeCq7kr1dbNYD6sSlIx6K1xmkKQpKAJrrCqPF6jLypSWsriT9CCsvO/H6b/7dHl9Wfni7EAFPPLtw0nZzl+9596FfTeau/g+teD9EO+a4naQ9Z1yq2wjiGbRm5yGonEK8gCDaD4REPPNAeNio3MjWQ+q23Eg9KZOO0u5cULIHwZ997d3G0gy9B+z1JoisQARFtiBLPERKRFQ7n3g4TwFlmE5TZFTgjd59CdnrQfXOoLco0V958Bee/uOD39vNa8X3fe8i4Iln787tjhwZJYf+6juv+c8L+9q/EsxSYOksIiIbivMJyautg87cAhQTz36E8QEIJh16HwMCknwouJS83Aot9Vi7jiEeUrEp2eV35VQwAIiQ6FippSKSeqj8c2XboUTNlfquLKFQK82gpRzt3rD9Eo92qlDI84yJh+J2KOmnXJLA6hJU9i2cO5f/u2f82Mq/oUTfO3IR+E5d9gh44rnsl8ClAeBr77nhvyWzh366MyNZjZa09yFK5hFEsyzxBC1St+1DSJIRqdvC/UBwDAhJ9UaOBlT0h3ZhklhI3UYEQp/atqMUEc+KI9EY1VupgtPqOHatJs83JpyuEwtU2XgujaqtUuvpGRJldgKO2clz5Gkfea+PrF8AK0voLUsMug+97YY3Lf3cpZlVf1WPwGQIeOKZDCd/1BYg8MV3POnPFg4d+t/CdowwXECrfRBxawFxZwFhZx5hm1RtCxDxASA6CARXaAcDUr1ROh2bv42cDAzpKCadPhS6gFxFQLYfKxVZ0pFdQ1DaBqSDTYl4VreXeEaV5m7izHV1KG7WZCZQQE6BolmGot9FsdqF7GUYrJ5Db/nMu5/xppU3bcFU+SY9AlNFwBPPVOH0jW0UgS+888QfH9yPnxSdA+zV1uosoNN+EoJkAVFnFqI9DxHvQxAdggqfAhUcgggXIMjhgJOHkls1OQpo+w47F5D9BvT3srbnmO8FS0Yk6ZCbNdl/tNoNkrza6DcK6icSq3u1bZ/EY8s5aAmHMipQeQOddZqIh5J/hkjTAgGIcAYYLJ6DSs9jcTF/27N+9KSXdDa6AP3xlwQBTzyXBHZ/UYuAeguCL19//P9tzR39xfkFQIVtzM5chah1AEEyh3BmDlTNNIgOQIXXsINBEB2ECPYZqYdcq8ntWWctIAcDIiFNPEsQ7GBANp0BhHE6IOIhyYjJh4nJOB4w8di0OxeramuqykbMuROTQ3+6tMPe4ibTtDLpcEjSkXmCIi0gB+cgu6tYWRLI+o//lxvecPJf+VXlEdgtCHji2S0ztYf7SeTz1evn/u9o9vivzcx3oiiZQ9I+iCg5CNFuI+rMI0jIxvMkIDiCICbyOYyApB6RQAkqGmcCQCmDAShGh1ymF1miIXLhf6sek49iiYfUbfRv60xAREXfb8arraRRZ5Zs/aC6fV+X6WYPAVM41dQ8reUjtVm0SRgrkOWkLqQaOxIyF8j7A+TLF9Bd7qV574m3XP+j53/TOxLs4RtkDw7NE88enNTdOqR7bj34hiQ++A4xFyVhixwODiFuzUO0ZhDNzEOpOQiSeOJjCOLj7GotOKMBlVIIdEYDqrtjJCABci6gFDrafVqn0SFJZxUwdh6SiCpX6xUnGJUIjJKPcpNV+W0Gt1EyYbgEqpPtoB5sSiozzTumQJ12UyvJiK5lBSFO+kn512xhN6qt0yMnglUUq2pVJOmPXPPaB+7YrfPt+335IuCJ5/Kd+x058m/9xdEbl+WR98/ta13b6aSIO0cgyNutNYMg0k4IQXAQYXwcYbQPIpwxJRQSTiQqy+qllNFNkw3H+LDEQ44EpFrrsWu1lng08XDQKUjiMUXmUFCxAe06XWamrpNIKW9GTSIAACAASURBVL2USFLBObLN2C8c5Zlpw55T+5SUwJSuo0mI7TqFRF5ICBlC5gPIrIdisIhs0MbKYu8rgXzidU+7+fR9O3ISfac8Ausg4InHL5Edh8A3b712X0903zYzP/f6pDMbRskCwhYFmVJma8poPQOl9iOM5nTeN85kbbNZU3JRKh6n3a3J5lNlKcgRsPs0qdc0+TARIYckAkKPY3p08lFiAVOh1BSH00qxcfE7+lZiAkHAVUDJaiP4Qwd8lgo5I9LwhynzoIocZMtR/G+BNMuQp/RvKgUx4Lxr/ZVlyv75jtl59UvHX/kEueD5l0dgVyLgiWdXTtve7zTt31+77djNYRL+zkxn9lirfZxLJ4hYQEQCQRxzlVIqFMdVTPmzhSCkQnJtBFTBlDNZMx1oyUWYOjycsdqkx2GJSGcv0DV9dO2eWjVS+rdbkZTZRIJZhYNLNeFQDjnNUUbSkST9CK1Js6o1M3WsamOSEgARjiUe832epcgGA4Br7JxFr9s9mffSX7rhjedu2/uz70e41xHwxLPXZ3iXj++eDz/pqrwX/3arddUPt2fOBXFCZRUoczWRjyYZhERCsalcGvLfAf0bEQLKRIoAghwQyP5ji76ZxKA6pY4lEi3laBKx2QlIfVZ9p+E0ZbTZIEPEon3SLMEwH2lxS0tdFItj/u3advg74i/6MKlvZKEQkqeAWkGa9rCyOJdn6en3hTPL/8fTX3P20V0+nb77HgFGwBOPXwg7HgHyerv3hmOvLuLgd1tJ50QrbCFuB5zRGiThRJTzLUIQhVBhABGE+i10yWwiIJJ+AvI9MPVzyAFBF5EzJGKkGk0QRi3GKjL7u6ti05BVHmr6VuJjuVyDPY9IxfFeM9JMCTjznEKeZuy9RlmwVaHYoSAt+lhZPf9gK8h/+alfPvVB8ZYhj4YdP2++gx6BcQh44vFrY9cgQAT0jetn/2XUnvv1OAoOJGTjiSmTQQBEIUQUQAUBhCEfFRDhUP2eCIIkHyIeY6Nh6ae02ei/S7Vc6VrmQmPLZ1fPa1qDRmcZhwLHllM6C7jp0piUdHwOS0EFfRacc03mulIqfeaDpaXeytJvP7N17q3iZq5g518egT2FgCeePTWdl8dgHnnfVYd66eDnZXz9Lydhf38SL7LjAWW6JjuPCCOWeJhKiHSIgFgKongfZh/+dImnlP1LW44N6bSYaolH3zCV5YglH/ufUqIxRFS6Smt7DqW9IbmF43EKiYISlKo+wlCi2xdY7s4ther8f5/D4DevufmBk5fHbPpRXo4IeOK5HGd9j4z5a++76pDo52+GSH42SKKr40giTkKIkFRsJOEECEOyCZENiOJ8ApZQWBoJBAIiImP7IR0cq87YccC8jDQjhnKqVVkJtGbNqOeMRMOaOtbQ6e9JwqGXlAUUFWwzajWJEIWSWFw6d14VZ24JwoXffM6PPvbwHpkePwyPwFgEPPH4xbHrEfjiO47NtkTvhwTCX0za6vlxqxXHrRnIggrGka1HSz0sCYWhFlgosYDQQafMK+Rc5tp3auZPkpToBPuynmwmEJRjcBSrzfhFhMXJPY1TAtt+KJE2VTxdQpGtQhZ5lvbF3VJmv5/MRbde87oLF3b9RPgBeAQmRMATz4RA+cN2PgJkA7rvackNeZG8SUZXvbEdymvbUQ9xVABhBBXGkCT9UFZrlnSIdASs14FOKmCdCLQyjq1CdJxmquptJB32V5PSOBGQnUa3IIiETBE6Jcl5IEJ/kGCQFw/HOPP+JOz/8TVvWP2ST3Wz89eV7+H0EfDEM31MfYs7AIG7/gDxvjh+TpZnN0uVvCKeO3pte3b/vjihujZUIM5YakgqYXLRqjjrfqDVa+bN3wcmPofIyiQm5dgfMtpY7zgaeAQlEi5FneUKg0HWL9LFh5CduiNpt94jW9fc9aybv0rBQ/7lEbhsEfDEc9lO/eU18IdvRaff23+DytMfCJLuy4IwvjYI2oeDIO5IIpUgRBAlUAhZwin1byz3GOIxf+ubpg+pFjkuyKrZZJ6vFkV4ppDh/Vm/+xkRJXeomeArz7p56dzlhbYfrUdgbQQ88fgVctkicO+7sBBlOJgGeNIgx1MGeXCVVPExKVqHFKJ5IdCWQByqQAQiIL+EQlAOHgy6UP3zUTB4PAzwYBLgoaiDh6Mezl7zk/C2mst2RfmBT4qAJ55JkfLHeQQ8Ah4Bj8BUEPDEMxUYfSMeAY+AR8AjMCkCnngmRcof5xHwCHgEPAJTQcATz1Rg9I14BDwCHgGPwKQIeOKZFCl/nEfAI+AR8AhMBQFPPFOB0TfiEfAIeAQ8ApMi4IlnUqT8cR4Bj4BHwCMwFQQ88UwFRt+IR8Aj4BHwCEyKgCeeSZHyx3kEPAIeAY/AVBDwxDMVGH0jHgGPgEfAIzApAp54JkXKH+cR8Ah4BDwCU0HAE89UYPSNeAQ8Ah4Bj8CkCHjimRQpf5xHwCPgEfAITAUBTzxTgdE34hHwCHgEPAKTIuCJZ1Kk/HEeAY+AR8AjMBUEPPFMBUbfiEfAI+AR8AhMioAnnkmR8sd5BDwCHgGPwFQQ2LXEo+78nuhcrzOjOr0riyK7Wqr8SarIrlBSLACYgUQbUDEKxEWgQiWDSAgRSIEgECIQCgGEEkAgIKjWMf+N8juACh0zPpJrIW/8FVBN5E289PX0JYWiP7gUs9uH0f0J6Gu6pKyuqoTpg+6LUsN9on7Wvhey3m8+h8o/U+MKUvFF+BXoCw6/FB8PybiaY7l7ZhyCO0sj3AC2Vd+VavSRO0djdcbu9Iome7KpGDVnw310x8WjgBAK+ly7bqg/whl/8/q8DM046O/J+kdzODx2fS5NE3WBynWbBaQhXrvtEWuCsRwN5VA3q743rjPmuoJqudLaaPwu+H60LyH0vei+9JrSL0lracSc2vkTdIFJIZ34OGXu6YDmmu4GmnaG3l6XvpdKCqUC7h/9oCRUQWhKoST9kUYhukIUy5DFGSXwhAqDBwMZ3rcqjp+87tV/NZi4Q7v0wOnPzBYBoRTE2U9855UFxPem6ewP5uLQC0QUHwoEEU0PgUgRigwBJAQKCJVDIOebUe+TZlO2ezPfkBPuRVs0prHNmu1L/77ZKVprbJsZN/Vjvb40f1/v+O0Gdi9fj+Z0M/O6FiaTzPk0MN3Nfd/A+M19Tc9eShF1BVAIQc/ASoUYyKiXyeC8kBc+m0QX3hdGrU9e/bLPPLqBK+yaQ3f8zrD0uZcd6q8O3pSL5M1hsHRtEg5aEB0EQQwg4jcLLyICRKi3RnrAABFPQc/nDvHojVwLEVux2Kcx7+ZmL/eQrbj5J3yUrQ1nkn5McszmMRrxYL75xvbcmVuxnrd2Pqsp2M193+RCoidp+1BMfysJIYmQckjVRaGWINXMQKjDD+Wqf4sU8r/tJRLascRz9lMvfWaaiv+UhftensSyFccBwkAiCHOEsYQQIfELKzd4CkmpoYhWSOKhHwojjvOXWpPGf7jvaT8hbnIRDp22E6dlnU2oqRWZFhROO5541gLVrPNp4r4Nc1p2d9rah5rWYJqgTK8tdz1rEjLEI/qQRQQpQxQqQgqFfh5msVz+RCfJfuWKl3z+7un14tK0tON2OHX7q1pn2oPfTsPjPzffPoMgTrWJI5iDCNok1ABB36gVyDSjFQys1eYXTZ/kJwjSA5cDHCKecYCvAclGeGqomY2c7PbNnrfZ86e1sNYiHj0PQwLS2EsbcMZuDsNjdW9ST0CjgCXimfIaKe+Zaa2hNdoRm5HC12hvO/u+CXhq69ncPPSdVAWkygEZQ7IZaQCJVbYUSdVBLz+BQJ59d6y6//KK7/r06U1cekecsqOI5+zfvPgVYdh6R9CSx+J2CBXNQwQgbwAIxYyjCUdo2402ZVZD0CZVMvFa4iFWogVt1VeTqA4qAquko03c07W9eDOqBLuR2HObm0p1o7o9riMyeo1Zi5em6UlfGrva3lZKksNtDD8sN5Za7UFAn6/VpPRHfRPiy3BHjVfD5J2edHAbOG5DDLuBdi/y0K1QHW/b5r0FpEmraTsltk1Nn7uWaG2TpoaUNWTzyZiAlCp4GOR7UsgceQ5kaYA8Dc8C6c9c8V2f/YBgFc/ueu0I4iEp5/HOhd9R4YGfnZvtI2oFEHGMMJ5BEBKdVA4u2pVEOkxgfYgs8HoOmg5llQNNnXzsk0e56Q3N3zQgqi+w8hLWIab8wiEos9s6DmRrGPc1y+meuv2t973pr1X1aj1i1BsDtRY47WunneqKVfukOLCkNq4/PMAa2mX7LvG4Ah87H26MLkdQ4oR36Ah2czd3I2lzY2tucNNYPxN2eQOHNR/a1jvVS5nrIXSRv9Oat+YC8gglO7W2HTDhFAWRkEJAUpACsgI4dzaUoej9UT/d90u7zRPukt8VFz79kgOLKrotCuOX7ZvrI0g6CFstRHELCCKWXvTjbnOjshuD/r7adJsbxqjH42rYdT2rEajWW0M11Fz5wT1RO/faV31vcnbTIcloxFZZG8K4KbPSyHjiqbesnP2yQUFDHsWWeAhnR6lZIx6tpbaN6vE2+lI6F9eJuDpKaKdt51WH+mKX66i1sA7BDE2HfrCp+G+tPu3gp27yVl5vnTu/b5R41vPg3sCl99ahNppgaFR6HyGcq+cbK+FL8tCGlBLIC0ipnaby3gCr6VH0BvLj0ezqG5/0HX99dreAtZG1N/Uxnbrz2493i5k75vZdeG6rPYOotQ9RexZhkugbmwNGJpMi9W3E8S6NfrpP88PDbd5Q3IrLaSNGra/VVA+4W+akuiDdxtpHN7fi4Q6NVe1btht5wOhrM1pmePWe6V7ShmKQbvBY/VtqY1haM+RUY+TKPqe5Sku3oxbmRje/yRbsGDIah5nVxzP72IeOMbfRtqmqJhtpjdA3Ej7lhqlMeClPPOsDNRSmRHcMOUWxeYDjtTg6jLdAetNyKwQozI5+y7IC2SBDvwcs9lt3zwerLz960ydPrn/lS3/EJSOexz/10iO9budv9x9Ir0sWAgRxC63OHIIwYQfoUg3DN8ja3eTncDIGjTxOn8+/X6TOt66eaG5Yto+0oTf7a/5tpYBaP0aFGFr5zQ0DtKLRelNmsXOPG0NtI5pakwS5O6OuT8F6DamppNN6i5qQ6jINt8haBTuP7qO2xWI7bxb3YaVxXasGtKq2ddVs683Xdo6rutZGiWFrSP/SjP1SX7XEvib4k/mASCc3poSCXauJiNhRiqQcik0kqYfuNUWGnQDpao6iV6DfHaCbzdwTqu4/e9LLd77kc0nuCnXr68OHDp65qzMjnjc3LyE684iSFsI4BgJyIjAB7WxVo43ZJBcoNz3bbf2p43LI+uBIB6Vax36/HoHV2zSdKLlseMNtkMLY1Wyvq+0eJgOAJknqI4nXjVnQThJmLMxjbt/GT5mVxCaStyyhm4d2Oz4j19RGU48nb1yfpRPbV3NlJheHiBs80iQe67TA7Thj1ULHNJboZtoYIWlbhnTR2aXEs6GEEaV0d6m37D10/dpNwB4FhngyEmsAZOxgwH+rASBTKNkH5ICD44l8CimhcoW8myLoD9DrRhhk8q5jN73oO4R4y2SqoksE6WbuyIvqKqW6+WaKD80vPP6qzswC4s5RtusEYchvEdImFmoC0u4cOsuKkWj0Jldt5pZ4KK5Hb+p2SBQVbM4zm0NtQzejqAhFt2kz1DSvYYlIS1buy6r3xkgCDsHYMZT9NKoYu3dpuwF561XjqG/GVuKorqWfzRtEXGXcGTFXlij0ePV/HdxGbKRrEg+fWxGP5rEmodb7O4SfM5/Vw8NwxpSNPqXXr7O+yrI6fpzEM8L7yqQGGn1TrPewc1G30sWdvEFVm3ErnPyaG21/8pZ3+ZGuV4oZCqtsiWxI2smM126q/+bvVwHZ1W+1DFX0mIyIgPK0j3TQR9iNEA+Wka4sYqXY/7bD3/vPfn4nk8+2E8/jn/i2f6Mw/xsz8wMRz84hmVmACiIIQzycfYCyECCECHRmAvrO+lS5BKBjf+3NTZINkY/dUEmSMJsiPZWXbdSHrDd5rYbjVBblsqZsCPRv/Zve9OhtNrCaCtD8NtJgazdmepqv+gd2D9dP9NXGbj30zDm1a9D5RgIobTfuxmakBTMGi0tdaNBSVmDUjpX60SXyUZul83jGeLnBigbP0iGhkuSqHaIu9Y2SeDRduQ8OlRuDHUMjA9lkG1AJrjvvkyz7MQ+MTdvPLpZ4JkHBgrxRVdvFPSRMNrW7/ih37XDAO4WJZFDIIJAx8bB6DecBeQEoFoFiCQCR0ACqSCGLVeTpElQvg0gHKLp9LF4IZCBWf+b4Kz/z9p2K0UbW3kWP4eSdNz67m17x2YNz52aj2Vkkc/MQSUKBOgii2KS+scQTmTQ4OjUOkUhzYyrJiDdS83spLdDQXCnISFJDuTYrCcpu1vqmMRJTqfYyxxn1n1ZVmM3R5hi1CJWoWkKifoRGatN9rancXHVSjeCMNMUL1CGemoTjXINJx0oblQTnbvREwIGRtDSehJtLNg1PLB6LYzfi/pl/WyI0fFhJiXZ8FghXSm0uo6qf2hZnz3H6UcufWUt/OcGatO2MIp5xy38jEs8oonYXwrbeYhPgUT7vbEyNubl8t5P353I6srwhmw5JRuIhTwKKVZRERKRqOw8U5wBJBLQIyBVA9YF8CUW+BJkvIu8uQQxSyEGGvNvFSnboDPKV51/1yo89vBOh3da74oEPPefjSWf+ZbMLCvHcPOKZDiSTDqnZEijOtaaJRwibi40+adO2JGJhNJtZKbHQxmzIpZRMHOKxx5VqIXsDOu1YL6SSvKy6zko6lgCqzbGShBwomzYZluBs/yzxuG02psGRwir1nDmm6SRB/66NzUpuRlqrSXFkQqE8zZpsNiTxlEM2xMNP/jY415BT6cVlSZ82/bpqdHhLN8RjSKxuS6tv6pt7inZxdm/BtVydxwU01ntfzv1YqWdbb6+N7S8b7dpEhsONdeGyPNribmyrNQzsMx1/SXE8Ou2XkMuGdM4D6oIhni5QnEWRnYEqliC751H0VoFBhiwdoN8PINLue46+8lNv3Ik4b3T5bXoMD9/+nO/uQ9x5cF8k4tYskoV5BFEEFYTsVCBCkmqaxGMlBUMgRrKpnqzpoY02NtrY7SbVkHL4HEfFVdpozPGlhOE+eZOaTW+Ypf2k/LdWwemX20b52O9gpH8v7U8leVry0efUqi6wWm89icGdNks8mmhK1SMTkmnfSkhm8whclV+p4nL7X18WlQ1JOzqUqi/rTlxKQRYPt/+WfOxY6zjZ/YzvQ2cuyr3c1fJtym4winhc0hl3C6ztXKChNeMduynXiXPTN88WnLhREveqtmlPgn1Itu1a1qnWHWPOWVjIqcCQD0k/cklLPJKknbOQRD6DCyi6S5D9HrJ+DuSrWFlZ7XWUeOGhV3/uq9Pu/cW2ty3EQ/byr9z2wk/tO5C/ZHYuRnt2AWGbAkQ16ZCaDWHYIB5t56lUVPYmrhwNxpJNaStw7CslSdTtCJo/6uq2UuVm2rHBkEQIpdeXY3/Rm7GGUhvW3cVENhWrZrME2CQeh8SMQ0XdUaLuEFCfdBcPK7rXvcNqnmHcOfu7uzGO2yQd3GtYub0wy6hG4rYvjfNdMjfDrqsCXfyM859D8xtf8A3iqcXWrLX8R7FJXRIqyzit6Xm3LbfYhmG5WOJZTwDaaPsbHsAuP6FydGrcH5ytwDwEmwc7QSo3di4giYeIZ1kTD9mBivPIB49DZKRuO4eitwyZSah0BWk3xcpqdtuJ13725p0G17bcFQ986CnPH2T7P7NwYD5pz4Zoz5NdJ4SIYg4WJWlHSzzaQUCr2qwUQ5t2Y1N0VGFl1unyO7u5E9TDnm5MMq4nEnuAVZNfEovjtMCOaaXTgiaq6jj3Sd19qq/IR0sYjhTQUOk1r1kmpyltR02ydG0hlrSGj9E9aKqUmlKaQ3ojJQqzcZdiTuUUoQnNbkFuuyPmq+YQ0bwNmi7l1ba2duhVM13SiNurpv5zl/saqrY18545jxXNdTl0+Z2duaBcH5PsSsbGw8rGqewaG2lkPZqbZADuw+BGjp/usS4h69vN3iuUn83o34wDD9fLI7U4v0nCucCqNiVXoOTAlGZcRpE+CpGRqu0c8t4F9nRDqpCvFkjloJdg+YaD3/cPD013JBfX2kZmf9NXuu/DV/xOkGS/NNd5GjpzM4jbEWQQIUxiBBS7Qx5tlB6HVW2kyiLycW04zadm89ReSgfV5JU30yi1HE+y3TjtY7RDPCUhVESjXbqbLtP2Kbp6FGfvN+dVLapqcblkxd/WJISqdAOvt9IG4y7O6u+mfUY/QRkchp7qm9PskpRLPLURNAjfnQPbXk1WqcBojqtUb7qKbft3vd2mtDi8yTkRqENehKOktsamVRZkXWM5c9zYOst93QNGZWAd1b8G5pu+yzZz4jr9Gccw62bbGH6wqKnH6efaGh3T99KDcFrEs8akTtKfiSA26aWc9VHv/TDm7u/6rjCeo3w9ehhvQUjyciN12wqU6gJIOahUqEXI4nGowXnIwSLy3iLywSqQEfEMEIgV9Lv9Xzv+qi/9h4m6v00HrXd7XXQ31K0I727d+NX9s49c3yHimV+AiAMgJGknhogiCJJ+QuPVxsSjVUG6c67LtO1uU/Vkvm9KMkMxP+NutGrTrtyzq2NrcTLNTdX0kQNdLVpDN2xTQnFIz5WkzIgtQdVjhvQYy98aY9MPT2ZTdu1YVlKp06LjJWeIp9lnbnCcFDVqWVRzoyFxsTa/lU94rpTUvI79N4U0aQ+2cTduOWa3O80NpOb+zM/r667pkWqiSYhm3ZYN1uNUc9MRJSbqhT5oEiIctUWMdr4Yj6x5KGs8EPEdXjvJeaDZxLytP3BnvCPns/7wOLa9tTz8eAjjspc0sTT39BDE7r1E8Yz0QE7ebRS/Qyo2KhVDarYMqjgPVZyCyi6gGCwi6y9Bpn2oVEKRrSc7h9X84JevevnHblwfn+07YsuJ54E7nnHFcu/AN47tf2wubh1Be34BILKJE4SxVrHRW2cssEZ9u3E15HoTT6PVoK5LsgGsduM6GQ9Kz6rhbadm0K7djBU0FRnpm9WVLux903xSr0+hXvCjwR71m6HcmiOEfkh0ya0ipnHTOOp7Gx8zglSGbkb3/BGblCvANDcyKymO2OprvTLEqB0s7AOEg/3Im7L6cogk1nxyXSv9vtum3ZSdWZwa8ay1ua1HBFuwMazpkTdmXY1RRY5uqunI4eA8FHzrEE8tbdb6DwuTIdPAvjan62C/EXdybqqB3dC6rK7n4sZnGRW7LgynnYRYuU8u1jaoNJBA0YcqLkAVZzi+JxssIe+TjWcA2S8gUoWidwE9dXXRFg+cOHTT5x6ZDKetP2rLieeevzjxQyo68f4j+7qI2hHi2Q7H7pCKTavZAnaltsGfbKh3J46ztdp0k2stDrNZO9u7642lg0ApC0KDEuwCKX/QB7gbYakia0gPvLea8+rtGpIp76PRm81IV+xRG7j9juNZbKNj7AdmU+CurrGpNNPTNI+tqwotZpNsjPqYYSll+NuaoDKCli3cE0s85fyMJtxJb6dREs9oPCZt0T1uvQ1uy29Jl03XieUZ3Ve+G0ckUR1FD3o0VuLRhG6zg+h7Z+11rDs7maS63mxo71LzahJDM0xhZGPOCEdyoTN3rC0z/2asLJbmu5KI6tI/2XnKvcc8YJMan2qS6ewREgj0J9l5VLEIwTE+y8jTZaSDFch0ADUgaQcoVnsY5LOIswd/4vCrvvSn62G0Xb9v+Sr/8p/v/8PZ+af+1EInRmuuhbCdIGglCMi+E0Ul8ehJstkCqvtB19WhpW5rv6zX5XG/W0IZQTyj1FF0uFkc4/ZvvZy0GLK2lkTfXKM9faqbu7wX7JNg+UVFNk3X5trmzR3SxaTGq5Qc4nJJrCmTDcHYIL1yQ2geaDIX1L7WGFVf2ZvI9l6XaBi+l93SDcPkN5zJYJwxf1TfG+ugSXzrlQ3YtAS0FvFcCmeEte6n0Q9MXIdp1GxxU+7mXKnLK51p5UhCRnP9qvdBt+DqEOwesN69v/a2ae3G3Io7f/qLdUi40fZ6xFNr3yGe2l7Dm4zh1uphzVX3s5escU6y6aR4HyE7GxGPXITgwNIl5NkqskEXMtOBpEglCkoimgnkvZPvveI1X/yR7SKW9a5zcTO5XusA7r51/u/n549/+0znIFqzswg7RDxU5I3sOyTtVGo2rRod7pKWd+r1bSa49GSHrLmBTAuedTaboad9lxycYdTsJsPD014xI++IoYPrwx7TvyFVRPMG1TfUOImk3FTcMgdDKofq6bm24ZhNbHg0Dn2NVA2OJsJqgxs1p+tvOtOVeMYszakZuCdb+utvtqNx4VIlI2Dkx0NHEtLlLcyBzpOZ/nM4F1/1GNLgANJ61HISTjo+9zg9ltr+Unu4WGMNbPghwy3P4ko0I9amJV5OGOzeAXSszsaiygB6nb+SxqC7lLLEQy7WQq0gz7rIBj0UWQ6VZlCDDMUqaecGGHQXv3Lla/7xOZtBbivOmdbOOrZvX/iz+fuOHjr+1NbMQUSdGSQzHZZ2woScCgKEJPWYDNR2NVdr1912XHHVXaKjvt8AVBteVBtouzx0nY1tzUSTk17PigyTEE/jmPUKELHHnOPpR10q7ycnyLbsqq1T2hy3LiRX37Uqshx+kh4l8VjyM5tXbQWPkhjc642ZhwmM+tOLS1nHxjNBXyZdEZMdt57Nqd6KfmAfVUOqTjrmMHPyaNyr7OP1bai5gvWjzah1NtkIq6NGkI97jw7p4R3LbHOdrXlpJ63T0A7rfGGlH2fAHD5ac2CiO8aGlFR2bX0IORssQ8llCNlHkQ2QDgaQaW6knhyqH6DoL2Jl6ewjJ153z9UbRWyrjt9y4vnSO/c/fPjI4ScluwwZfwAAIABJREFUs4cQGOIhbzYOHGXi0aC60fujicfdcFw4LPFMGSJ+xJoWPGsRz/pP25ONbKSuasypDclobCU5c3pZYmL4iU3nhnNvbVuiwpKTPqe+cbsu0U5fhlQ441RtzvWGjLijNlLb73HzOa15nmCmdlw26zWIZ8z6pweE4cebEcRj4RjRTikL1RoyJdMb02H/WbPZTgD18CHD9xrblMcU9ONkuvYWII3LRA+p5hojl9SIe93aiB3BSIdK2P3OtmfiE63TDn/dh1IU0+MQTz+FzArILINKc6hBgKJ3Hssri6evee3Xj24Kti04acvvuLvfdejkwSMHjkVzhxC0O0hmZtipIG4Qj+tZyZ2a5MF9CwCpNzlFUhjnQstjnXQa1jiOPWEmBW6cxDOOp8YVqzMbRYN4rLddjc/KAN/yTq7+cOM11jVaVxhszAFiUoy3eFGtOdfTWm+TjmGd641R/SlbDM+9DC+/YVXvaNSNzXOom/rocbd+LbXUpEN0j2uOxxQ2rNIB1Xs7GdE0O6IxHWvPHZp/95rm71o4hCUe44VqiYcdjVJNPMoQT0oSDxGPZOIhyUcNBIr+Bawur5w/8dq7D24Gtq04Z8vvxq++68iZg0cWDoXzhyCIeDqzLO0MEc+40a33NN48b+JNfD04p7kJTHKDr9efCX4fwmrcLdyY9gkwGz5Ej6m51egIqzFSR+nlMzRpjvatSYrj43iGETE4jx22/mGiB9cxm+IEs7D2IXuVeBjYYeIZDwbZeEZt2iNCHvSsOXWnNjsLoyQe3Xblyj+mbX6wm/Rp2LXxjNtiR+0JRlU8ynZp8yvWiCcD5Kohnh7yLEXWT1HkI4hnZXXxxA9+Zf9mkZv2eVtOPF9755FzB48tHAiIeFpk45lBGE1IPLXI5WHN72gwnCFNsKGOB3TCYLKJZmSaJLbWBS1G7uco3Nz+rJU6pr48huAsve/qfaoMyu73a7nNjh/TSMIzX46XeMa1N+nGMeL8qd0p662rddavu1tfxHCG0lCNhGzcuh1dq+j/Z+9NoGXLyjLBb58pIu745pfvJZCQZCYJSSKjpRYqiIJCYSliWssBG9subatLa5Xd7dD2Ml2uUsuqZVld1qrG1SpKQWIyaiKDFKJQQKkgCAJJzsPLfC/feMcYzrR7/f/e+5wdcePeOBE34t6Ie3dAZNwXcc4+e/97n/2d7x9txwLT3HDPjTvfJ5NQtakHkSr3Jx3TI/A+Nd3UuHvKe9iyLVRoGvC6rm3mvs9n4e5tZVLhININ5IbxJB0knQR5miPrZTwbzbVnfveXlittV3tw0Nhup+36eu/bTl07dnrpiLd0HIiUqm044OndTIslXUE8u3FPHUY0/Y61bU+D2hr0e4WhdnGPbWw4haqhl95vBwrWcVu6WOFm3bIxGt31cJ6rvbBW/LuSV9uWu76KMCdyjPHmqqZG3k6+5dzuatX0qj6HAp5tmE2PmXE40NEb8Q4q6d3grAGEfsNU7snW2uw6SEu5SN5Z/tg3Y3cXsPS9WrH4VSydHrd5wipi9XoeDu0UYPwT/YfS5mwilxsQOXmzOeApJH7v206vHDu9uDwS8PCcDEPft5voHfaRXbEiGwTNNmD3t8LmPGz8wI5b4nayMrdsL+CYm103usWrZ9DWtk1Rtm13iH7tVZHRNoM2N+22Muk33mEwxZ7TYc7rf+zgpWbv3DvJXqsMd9OlLs+p3TS0G2AftL7stnexTioNzy662O++7tPIjqlzdhpbD6j0BpfSz132KJOBXlVDZtDhIFIqj91Cnm8WXm1pnCBLU2Qx2XiywsbTbAE3vO6vhxF4JamNetDEO3Lv206vHju9uLR/wDNANGNxZe7ZwEtf44qP9ruZht5zh3kuHHTdYat9DgL4AcAzqDvDrnK+Sekkm33Svwepu+yNZ9iLbn/8YOCxzt3pYE0lhmcUVvuVGM8oY6+6/kYBknEvEFveJr/aduU8RpFFhQcmWwth7Ei9DwW8jk2KK90/mnxBwNNGLlsQmWI8aUIBowkycqk+3MBz3dqx0wuLJfA04IcRwiDQ7tQqjmf7h9bdMp69Ap5+1xnl5hpmgU+6/ZEt8dUe+QvGMsENpV9PtvHWKg7tYlKj9K3/OUMBD+Nln3a6AjSHWSs9gDAx4BmmT1UfAIZpc/hjjcpsawqrCfVvy7o386w/GYCsubeBh/4mdRyvA8pY3YGk5KFZC3kaI00SpDExHgc8XcBTm2twVuowCCE8Ad83wVF94gp1shzFJ8ykDL+wdjxjbIzHAc/wM9Nzww3fwIhnjAImvaUktrv09g8DQwPPgNFVZzx9Ht6s4oUjCnH3pw16ANj9FSrG3jDKq6sZVdZYVeBbB1LU99IP3UprZ8UKFc4EJh9XWWmYW6PJJ3Vb3kJOZRI4YSiBTow0zvoCT5in82df/zmqqbDvr1HuwKE6fe/buhlPATwUxyMoZY5VLdP0hr1F+lP2rfm5hupOnxUwoacatToqqtpGHcOk2x8z49kyzIkvvz6CHfWaVWW9A/DsOM1V+1XeF1XP6E6yqc7qKvUx6vLb9XmTvPdU54aLxel9EKou4dFEYbdvsR3e+6wHHQPQNktlVRt5F1K+NgU8eZqwmi3ZAjzX0GwLhJkDniKOh7IXFKo2kv0OoGMmd6zg4xjPzvfMaEEvFe/DSd/YFbtR6bCqwNNfRUZ7x/bWjyHatrwX+awqJhUWs3WgzkTRXe6jkhDGeJAec5X+V7xqlXx6VY6Z/ANjvwH1lmzQXnZMhTQIGduPuSc9qtGjgEfIWAFPnCBmVVumbTyUMucqmm2Jmt9ZuO41X9ysKM6JHjbxO//et123fuz0woKx8XQxHo8Yj52qvBrwKC4xJsO3A56JLrCdH/In/8S794PrDyI7Wyp3ATyVB2h6oK6l/jXMdStfqPqBu9U9Vngo2rrBbd03+h6zU6aR6iOscKTFsgofmJ552aL+02OgmjzEeLIWkHc044k148mRd3LImDIXXNbAkzjgMZkLRgWesYGPA54KN8eEDrFyYU3oCvvQbP9nOd7od3rMq7wOy2zerG2pPMJul3p6kB6DU3blq/c/cDdxdtv4JI0CRn3O2X2w6iDRWJm7NSFl3Cn6YoOP+dt6UGOXaiqBEkPmBDxt5Bmp2lIkHWI8UgOPRNa5hGY7Q82ThxV46qhRACk5F4TKq43LIigU4VffoKwd5nDXzKfyDT9oIfX7fS+eKKtvPaOMYJitbej2DyTw9JfCzsDTa1vYSZIldxoOeLrbVMbsSa+dAStit4ynwoIbzsajbZoTdbywZN5n/GV/reJ5RR5G42BgzMfEeMilmtRtxrkgsYBHcgnsrHMBzU6GmvAOKfDUaqhRrjYGHr8i8Ay+OXYFPjMPPBXuvpEPmTBwVng6HbnrO544eE2N+7oDGc8IF9w98Ixw0bGesvfz0PWUq8eydRlSpeJJ9W0b9bIFQgp8SuAhRyu1x5kAUg085NUmEwYdUrWxVxs7F6TIOqRqI0JEwHMezU6MmogOEfD81zPrx07NKxsPAc+cSRJqgEen+9YG0K3BwNUWwMjg44BnwFZSTf4j7UeVcmSN1PIETtqdHKYPeCYcHzdwBib8UDPw+lsP2BLHMxFGrtbRtqo8bedR1Ua7SzaoPc7ITYLK9AApZEbAY1RtBD4p0rYNPE9isxOjLlYWrnvNU4fDueBr73iWPHrCx6SBRykORnE42J2eefD63t2GtXP7k2x78Mh2e8SeGLd16vvd9lXtFhXkvcMhg06v4uBlN1/Jo80MfEvjebWUcWMR3HaNVJDnRK/f23ip8mQQGjRhQ/dNt99T+LKrGZ0TzpS5tlWiXUyIZo8DSTNmOxzPowNIsyRD2s4sxvMkNjod1MWqA55S1TYexmMmbzTwGXoFVTxhEovXvvT0PTVWFIz11LcPm4+dSYefWMbch74ZB3aWzM7u1uW5W9RrVdCKx1j1wGFmcLfH7k7uOuaypxPjGKc3ZPxPVTno+5VtSPTqo3arBDyarTLw5CXwZJSZOkXaSZG2yJ1aORjk8Xmst9qo+w54LBvPeIFndOZTdfEMc5wDnp2kpezbu9t8hpkNjXZlFoydTt7jflX1ojKKmqHHPZUnTH7uh3VWUmLarpDbOIToKYuN5/WU9yFZkM1G5Yzrq2rrUk0T46H+UCwPZalWqjYFPBnSFhWBk8i1jWe91UGUr8+fff2ThyNzQbeqrY5ao9erTcfx6DW4daGMtjing/k44NkReEab2l3d/erBf5QL28W9dtWFbU6u2qdxPNFTF8bVzm5ksT9xXAPBiDf+SbwU46kEPIKAqTvqWFX2tXrG4kshGXhiyCyGTDPNeFLkndKrbbXZRk0eVuCJGhgUQDpwUQyxHvYffBzwTBPw7E7btEu15o6ZC4ZY1NahvAWNih+CfKVGPXm0/naftUt52vkbx9AdWxYKdiYBPQZ4yEFNA4uh4SaDugrm0SPq7of61oCP1heLDJI92zpAlkByZuoESYuAx3i1XcDaZgcR1g4p49lj4NGkeTJrqNJinzTwjPr0Xqnz1uIf5vjqx/arWFn97OGO7N6kR9hUqu7RO3jqVW2i6siqj0KrcOyGq59ctTsjHDeBDX6PVaTDDboEHgYXYwvkr1VEL7EcNTWWB5vl6kusR0pPqYvJnZofIBLIjIAnBljV1gM87aewutlBTaw64Nkuc8E4GY9ZFPvHfPYCeIZb+sMdPdndaU+Bp2vXH2JcxXlDnLPN5rcz8FRtv2yl6hmK2PRcvfLJw62Y4Y6eAPD060DXWPd74MaxoBy7ig81WahN9SiyMxHIdM8bq9s4BITeOWcvkEgLVRvShFVtNuNJW09hrUlxPCsOePYSePaP+cw68Ay3jQx79Ni9VXfowO7UbL0VIYcd6WDNTVXXcpNlrejBqDRqv/df81Q/EZXWkPOzhyzJAIydGkf5E9BEdjscFC7dhg2xFq6nIJypREr2nTyB1MBj3KlzdjRQjKfuOcZTZqfuSRI6Ccazf8zHAc9OW8BMAU+xUQ7Y1LZzXpjURl8JeLZL6japTlXd+PeI8VTtTrFRTE4uJbMhRqOc2PjBmFRmPTdECTL0m4osNd5uhf1AB5Fy5oKUHAy0O7WO48nbGZLWBQaehn+obTzaq40rkPrwgu7s1P2Bp9LdVWl57a3abQIW5a5RTu4GqSTMXR40e8BTZcDbzPnAqRp4gHVx636oemtsoXzTsOlPQx+2mdMJsSAFPFoHQ/E8GnlsECrxr9flWjMevnG0RyDbeVQQqQMeay673KnZuYCAh0pfhypXmw08/ZKE8g1T9e6qsjGMmuGgWtt7e9RsM6qDCTyjroCqrsXjuh+mYdOfhj7sF/Bo9WvhYFCkC7f0skY+5ZwL4Vs2HsKfXAEPqdr4rWw8JmXO4WU8d90oj53w4C2dAKIGIgKeUJW+3i/g0c8b++jtNurm1HueA56qkty1jafqhUY+rirjGddD2DRs+tPQh70FHtKtVZvBXtmoswh42CZUMB760gHPllm8764by1xt/YCHbDzWPbdF1TYBxlMAT8FpR94t9vnEGVflTbr7enZ4eVW72/d5Pvfy8tOw6VcF235y2c25eynn/teqthz7jbF0LuBfWdWWO8bTK+b73nmjPHrch0+Mp1ZH1JiDpxmP73scSGWnTdkr4NnKHXomebbX9ZjurNlmVGMSwgFtZhqAZzeiraqa3M01puBcXaa87IkDnkqzcv87n93NeBoN+GGEIAgwTcAzaDB765QwqDd79bsDnr2S9N5fxwHP3st8tCt25/GrAjyJtvEIHFobzxbgmSPgCRH4BDw+BGdYLenFVsYzvXqSLRmdDhxLcsAz2lYxC2c54JmFWSp3P7O5mHmj7AUmg04OqXO1gUojFM4FDnhUPR628RDwBAi1O3UX8LBfezXt53Qumh4omnkgcsAznetsHL1ywDMOKe5FG1t3RJo7v6wJJyRyAp60A8pckMVUj0cVgnOMpxd4QuXVxtG5hvHMPPBsXYZD13zfi5Vc+RoOeCqLauYOdMAzK1NWCXi0OzUxniw27tSO8XQxniAK2cbjgGfal74DnmmfodH754BndNnt7ZmDgEciR56nACUK3QF4nv09906NDmbiHeln43HAs7cLd/SrOeAZXXbTfqYDnmmfIdO/kYGnTViUIWmqlDk3fe/XJr7fV5XpxDvSCzymHg97tXm+qhtuXk7VVnXe9ug4Bzx7JOh9uswkb/9Jtm2s6vsktj2+bFXgocwFlMEg5+zUGdt4shb9rYDn5jfcN+lJqSyZiXekG3jqOmUOqdp8DTzaH/8Agg7NgrPxVF6L7sADJYFJx9lMfOuyZmMvr7V1EXCuA7sLlGZH6Jo8nO8th5Qp8i7gSZER42mnSJrnsboZ45bvu39/B7KXEu0CnloNtbl5kKqNYnjInZoEyK9tgWdqZDXStuCAZySxuZNmXgKTBp69ElCV/afKMaP3l2w43dUjlJqU0+bo7KI5A48qBseMp5kha0tk7QwxA08Hz3njA5Pt6BBDnHhH+gNPBN8XDniGmKj9OdSp2vZH7gfhqgcFeKrMxWTtZdsDj/YIlhIKeBILeIjxEPCkGnhiBzxBdHiAp8qyHfWYyWdTmPhzyahDH3zednVxBp/pjhiLBCa9dibd/rBCqNKfKsf0uy5VGe1+qVo9WlUEAp4MeZbqOB5iPAnydo6UbTznsbLRwa3f/+CoHRhWGAOPn3hHDjvjGTgDuzhg8sCzi87t+6mOre37FEysA5NlGJPp9m622j5B9Rz7WLaZ55lyqU4zpHGsgKdFgaQEQhewSsBzx2ECnruelR09GXqcuaBW4yShYa12aFRtk1nE5lmHqPYkrzDLbTvgmeXZ27nvswg8E5oNbePJZM6MRxLwdGKkzVgznoS92ojxPO8HHp6a3WLiHbnv7devHTs9v6jq8dS4Ho+K4/FVACllpy5e/WpVTLyLE1oRk2/WMZ6dZOyAZ+AKnFSRoomrOR3w9M5tnivgybMMSbutVW2ZUrU1L2Bl9dra83/44vLANbFHB0x8V//a28+uHD+9uNwFPJQkNNTAYygj9YSKJE28R3sk2T27zOQExi1PrvkJS8gBz44CnlCdK8PFJ3sjO+DZCXjiVhtpK0beypG0U6Tk1bZydfW2H7l8ZMI3XeXmJ76t3PeO01ePnjpylOvxGMazBXg44MUBT+Vpc6q2waJywHNwgWfw7I/viOkHOUqsbDOemBkPAQ+xnxRZ8ymsXLt09fYfvXZ8fHLZXUsTB56vvuPYUydOHT8VLJwC6nWdnVqr2qgQXJEg1AHP7qZy/GfPtirPAY8DnnHcE1W3yKrHjaNP3W2UwJMhy1IQ40laHeTkSt1OIZsXsHH14sXn/uj66fFffbQWJy6tL9+1+Mjx46dviOZPQcyVZRGUqk3X42GVjgOe0aZwcmc54JmcbPe95ZlWte279Ho6sL+syABPmiRI2cbTQdpqI+8kaLc7wOZFtFYuPnbrm5o3TIvkJg48X7pr4XPHjz7jxfX5ZYiFBqJGHT5lLuAKpBbwaIk4G8+0LA0VG+1sPNMzH2PtiQOesYpzcGOTAycCnizLkCYpkiRVXm3tFvJOB512G/nGKuK183/7nDc1v35wP/fmiIkDz1fefvwPF5af+aaFBQGxtICo0UBQq8GzS19bY+3vEDPLxeH2ZiIncZXZcC7Ybgk7Vdv+qdpYhTGJJananLjX3CS6vht5DDhXSmY6McXvdGLkMZW+JsZDTgabaG8Cydr9/+G5/1PnX09iZKO0uRtpVLreg3ed/UHUb3z70SNrwNIyosYColodQnu1eZSvrRd47C8m+mRWaQiH9iCrIvmUy6DfMnbAs7/AM8klc9jmdgBbkhJJmiLutJHEHciY0uWQjacNubmG1dZRiM6933rLD618YpKzMkzbEweeJ97//Kdvxie+dvzY+YZYPoba/DKCWgNeQGo2ShSqE93pXudCQEjBTgeUKIL+C367115LoD/w2Oxz/MtnkKq1f+hJbz8O28Y0wsqYuQc6W+1r5ldq9jPC+GfqlGrA0yHg6bSANgWPJqxqE+tXcCV++noozz392Xc8tDotwx7/ztEzMnn39/tfkfd/+eSRJ57jLT4b0fwSwkYNXhiA2E5p5xGQ8CA5BxFZFwSHAhTAI3vAh9aePm54YQ4ettxBu6fO7j1A/5s/en6zL0c3/LaXt9voHVXvhq8bkUpO/RplG802r62/WO2bP4uD1Bf0XzU8fcA2lGgrOFhj7s3w3tP18krdHS+GSA8l5idzfRaA3f8ugQ+xPA6RSndmgKefndGs/X734RDTPYlDBz05jXTNHdTJ+n4kxtPptJB2WpDNGFknR9bqQG4+itXO0mdu/YH7v2mkS0/opME78BgufN+7Tv5qvdb+pWjpVkRz86gt1OGFEbMe9m7zA4BAh9N8Bww+UgrObKBeBDpZ0RO1PVBJBeq+rksxlE558LDJYLfTi2DS3uzK4yVE77kW2MjtosX198T06Pyt1zfAq0DZAA3JieTQr7dqlFvHuqV/PWPpN27TH/u+ssdsn8ND6bqskhV/NRB4uuVaYExxAdMwseLyqgYQt4p3wNNi16raG+AxcitLZqiMHTs9KIzhNuxB8v5yHuk6w+hkB9xXW64/qO1h2xtpgMOctB3b7peVZZh29bH285UEewbTemJVGzsUtJA025wuJ2lRzrZHkKatn7zp+zfeMsLVJnbK4B14DJd+/J6TNzfbRz83f2R+sT4fobEwD79G4BPA1wDEgAN6h4AX8JvrTcDXzKbMxiqFD8HfE1CRjUgBl3pv3aoKgNjylLf9RrMT8NA2X2716ga2j+8LA/oGoY175+1Nt81aBHNkuUnwNlr8Rrv41mMKbtLLEjUeFKBpt6PFZsCha0tXF+T+bAXO3g3MyEZzFx53d/+3LiktQyXJPmxS4xi73JeYpjbu8lxiYkocVcHG7skYN+IB90wv8PCYJ4B5oqju2+82pweZUS+6C2/HoYFi0BY16hjGsLFt24QKDTGvsfbQevKjdUT3ALUfJymyVguy3UaruYE8jhFvdtBcS1fE/PrNz3n9k5cnOeJh2x40q8O21/d4eSe8rz7v1nfPL8nvnV+IUJs/grDRUKBjgMeLIEUIKWoQXgThh4r9IOI3gYvgfxPTCQECKP4Mys9iw6GJVyq77mdis1F3b4b9Oj0a8KglthV4FDCpbVIvQ2I120hXMGDwNm9tDupvBQxm06Dv1N9KJWmPS32nxtF9JT6Wr98LWiUr6QYedXy5yeu/C5Qq2+Gx87Hd/TFjKWfE7lN3+zzEnQCo2KjL65rNu5/sqy3ivQeeav0a/SgG5r6MYfD63/6quwAdntixbsPb3UGjC21McDFIYzJyB3lfUy9zDcpa0IkpG3ULstVEu0XMZwPNtTaam+lbbv+Rx39y5OtN6MQ9AR7q+2N/9vSXprL2qYXFMIrmFlGfX4Af1SGCkJmP8GqAV4P0GxB+HfAiZj0S85BoACKCEDVIEQGiBoi6+mRQou+I9SjVmwIdH5DEhswQzWZJn6S22/kGqAY8BGRKBUblZ02bpbpHXYMKObF6izd7e9Pv1wejquvdvFVLvKFrEDBg020HM6BF1zSOGfZ1qB/dwFWMVfSqCc0GZeRF51p/ixLYlJRN/0z75B5S/l0AZ3Gsbr8XSLm7Fpsrum8BZRe4mWubjU2f28O2dr6HbBCe0N3Ws2FM9ioDyq6PbOPZY+DpYv5bJVa1wu8wQFAlfq1grT1dmjis9gAP9SMl+w55sbWayJsbSDsZ4s11bK6118Mgff6z73jysUmvtWHb3zPgoQf+R9533btrS2feUJ+XoIDSgNRttRBeEGqwaQD+PEDAExAQEatZgsQCJAETg00D8OYAMQeA/q3fxIAM8BALkvrNQKRVMjxavRlrwNhOYIOAZ8sTvVZrKTWc2Qg1q6Df6E3XpI1bb5rFUz2v1lwzJaNq0yDVj/V0AY8ej9m8GRjM2wYZC2ysjV7y8Vp0RjVnNmxWsdHvut9Gdvo7BSrmdAsocz1WZJAFyBtQMozQgJqWjRlnoR60GQgBoqUaov6ZjdN8X/y7lL0aVxUmo7eLoYBq2FutPL53bU1K1VbMTR/WI0bNTD3I5jJILCMwnp2sI1VAwqiJB3VtqN/1kum19arVPblt1dh3+W6iwNFc1d+h/GzZJgFPE1knw+YaIDrn/sOzf+jy1MTu2PKdnIT6zOLj9zzt+sw7+/kjCysng/njiBbmISIffhhCBMRy6E3g0wD438RklgExD0m/ifkSdOhvAiF6EwB12XmI/YSa8fRjPXoz3YH17Aw8xtvOVvXojbGwQVjqDM08aBO2WUixcfcwmFKtZTMTa0MtNkgbTDQTsYGnYAX9NnfN1qyNnlhbuSDMeLRjh1Qgwo4PDCYK8MonPwUsStVmAQ//rX7j9o3I9HdslzGsqAtciC2pg8ubW7dtgMdidEaWyrHBAptKG6xhXtacDbULDXswqV6HPWfMx1cC5O2vWWnD73P6MMxjmBHv5JgxOrB3T1Khxi3U5H0cidgbt/+2OhIg6YVStEherFzqWq14TpNDajYKFt3cRLrZRCe+htX1I/fNZZ2X3fzDD6wNI8e9OnZPgYcGdeGDT/8x4Z/4/xaWQyFrAvWleYgwBAJSrUUQCCEK8CFgWYAUcxp4FNMRxHY065GiAQFiQ6SWo+EYFRsxHgIdw3jMhmQYz85PwoMYD6vOLMO+bUvp3lwN6+hhJsYoXiysctNTC9wCC9uWwio7+6neYg5dzKRkVgWQmc0mz3oYg2qP/ld6vFlgwRFVmQIIadRnpRpNdU/JQ6kUDfAosCnVZpIe00pbFDMqdTw/gTMzNI+S6jgj127wsUFTH2dsXYVsDBWryniMbWr/EGH0DXLY7ULLZM/v/tIuUbXHVVVp3N4OdtOq17N9pi8DAAAgAElEQVR4aXkv6HZ72U2p2eh+lu+/gqoxIbPelWa+tA2T7y7fDzmQ5wp4sjxHEsfIkgRZs4WsuYGsvYlrnTQVycZrb//B1Y8OP+69OWMflh7w0Puf+5+PzuGnasciCGY9NQjycKM0OgQcxGAYfAhgapDEfAhcyAEBNQhWtzUgtZ1HaOcD9aRhbDz02Y/t9LN7bBX2YMZjNn+9aVuPsL02nnJDpmO7vYn6lr7rYjSlOqv0ViuZVmmrMmClP/uxCHV39th47A2395ax7DM2e+pyYuj1juptX4+5kI/ddwtAu+w82zCPQp1o5tDIxmrTfiAYSnVGN7kt6725ASd3le1YlX5gsh8AJteJLS0Pw3iMx9ZOm5R6zpjMwwJpJ/qqRc1ttJ3GxOpO1/1doZsMNgZELbZT7ClU8C2XyCSxnZwZj0xipOsd5J3LSNJNXF3L73zJm9d+ZQ+ndehL7Qvw3P/Bm2pe4t2zsHz0O44sZ8gaC5xCxw89+B7F75CKjbzcyMONvNbIdVp/CnKzpr/NMSEE2XP4GBpO79vIxN7MbLbSX2Y7Ak+hTtO2I8vDhFqjzAt9oKz4apBHv3HX7vZIM/3vddXsuRarrsz4NIPouTGN59m2XnNdne+R2xZvu+7N2lZH2M0UarNeRsIHlUxHuWv3ZynKM9C4a5dOFOo66q7uZmz6l0obU7/YqaHvp6k4od/a3bLmzDoZ2aXalnr1YQ8DPFVa3a698VynT5iEBo9uFbORBT10mTugG2UY5yu8FMtR67m4ht5vJDVCbCfPlKotzZB1KEUO1d5pod2ZQ7p58V23/OilOypcal8P2RfgoRFf+eBNS1fi6MMnjjS+MVqqIWhEQCAgAgGfy2KTys04DBiaqiZV0W8KOCXXalKpUV0fHYBaiNP2ZtNfFpuaAYztV8POwGPaNiBXqhDoEnaAZzm76lq8pW4rdbN56iNtlmAeeThy3yb5ZR/MtUqnhZ1Iv+5PwQrKnnabRRSIKQ3fdnE81rlGo2mMrF2bPgXH9q73EmQUV9seeGiOS+DRx1kxRqSus9tXc1h9iY9ns6p+P0/ier0MwGxivb0yhX+r97b7yFH7PvC8Xi+2gRv2YHvZaCpM+/5QYze7kC1j9aBjgUVhkeztl2CwGPQy8jFqtmI3oXMJdLIMMqd3jjzVsTvkXNDxsbkef7R+XeP1N7/2gc6g6+z379Xvygn09NEP3H40STv3nFz2/3Ew14A/vwBJmQwCDz69KXOBDhpUbEYZtUujsx2rY4JJq3R08LAHAg+jh+1TbxanMf1YoNS1YW9X3rvcgI1Jp+iDZQjmVs1TF4PYDot5m91lp82/P1fTNxHHb1rPzsWl7T6oXHsF87TcP8ubyIJjAjXz1F0E1/ZJK8SXUA8MvcG79ox3AQ8PZisw918hVY/rObvCZtIPaovv9PmDt6Qq67rHhrJTrFglp4vtrzkQQLY5ddB5W1Rbtnx3kPW28uuVwRDzRevM7k+XCl0rFQp+o6/Dq5kwQo+/ABLWQgzWCpbXo3asgOlcQjDwpBp4JAeJZuRC3cmwthZ/5Hhef8PZn3iyWW2l7O9Rg3fgCffvyXteMtcU8R/Mzze+f752RfhzZ+DXKI8b4Ps6bY7ekGhS+KlBU9EyLqQ3UM7exMslWZw2jjF10ZZedZd5ztbMpOsm30nRphlP3/6NsjX1y6FQMqbuGKfyol2bd+8+W2oXB0jRZoXmLuyfUa4YWSHG7caqDhi4aA1IFQcOPGOoFVES0UFK0z7N9mx8o8zqzp21WrTYQ+9+a3PmoQY/MALOHLCNbKqCh9nIDTDzfT+8tLrOGNL5gIHHCEfvOwUw6H/bK0tzJAVWlFFAbziaE/VJg9VP8mVsIMcjygAePeCSXSdJgEww25F5B2n7KbQ7x2TSXH2LnLv8M7fdgXjYudyv48d7R+5iFPe/79Sdfu3oLywvLEe1OXJyIzAhACJWIUHpP9jYaByhtB1jq+eiMhKXwZVWp4ZceLsYzpSeavJIWYxkGnpaObFi1X5PdlnzxmJUjyNshnsm8i7gGX7THrWfhXpvQPDnTu0Xm3auGPEgpjRMX7dTP+7cHzXn9ODbP5fiDuzQWo47j8McaFQaKhCewv/InkO1dtirgMwMucD6xrUm4vM/f9ub8/80zPin4djJ3qFDjvDcPdd/I7L8d6OF+vOjhg8vPMFlEwjhPc5LlHNqNumb6OmtUdQF6PDqUoS3VE0ZtjRkxw7U4Vo9WajDZmlwGni2pEPa+zGUKpQqFGDv+6euWG7Y49y4B43GtoGMel3TBts6eCi7B87dNKHGoW2dQzTUdd4gAOV1TTZrikGkvY2umSgVGzkSJBmkXIPMyYmg9ekc+Y/f8qbzXx00H9P4+1QBDwnowkdOz3c28T9vZKd/8fiRldP1egiPHAgoj5tUiUGFVyhY+6Si0oCjgwu7lE27eAKbxskbuk+27aUroerQLe39CV19NwC0n8t3sFF774XUe8Wyj6MCwChjKI35u5GR5VY8JuAxYxmF8aguaGXaMMCj+25gc9t5MOubwacMCRHSQy7XkeUp4sTH+nrtkQYu/kpw+uhds+BEsN362c87d8c1fe691x9v5U/8dCqf9uON+SNn61GOwKMpUcGJ7GzASRC33mwl2CiX28ILbIgFM8oNN/Xn8Oo3DhkjGtP3c5CFQ8cM9n0f5Faoq8Zq3Bw8kHKDVqxrN69xAaYNNqMDz/DjUd5pJfvsPx5LBU56NRHzQ7bIG0C2jFhk2GhefkS0z/1u7i/8lxe9eWVlNzKdhnOnFniMcD7+cQTXX1p+pUDyE4HAN9UinKHcbpxGB5TNWvstFSBUGrVLU702pVrAM+rim4ZJG70PNlOwS0iM3uLenWnZd3o8CveuD7N3pVGe0nc/yv1hWjv322ZfozKx3Z63s9MM72SiBelfQRIDXhw9FaXBx1KB372pfvm/izusomS7n6R9bWHqgadXOufvxsmNFM9rduqvTHDihcKvP1N44ckgqJ3yZdvzvQyel3tCJ8osywXsq5yn5OL2dM/c1Jf+bJWdESYs9lkQ4e4Ix64FOILf366vuW0D+ywL0y8yF+RcTyxALr08lz67srVanUdy2bov8C58MvTTP3vBQ/iKuNPKxDs5yex5y7Nw6wwUyt13w7+9df2RVCZHkK+fFiI+jjw7KjMsS4F5maMOyqvD6Q8QSuEFUghfSHjC8zwpPQ+e9CA9IQQFD1F0jO9RMVAVN0YudaTYUz500lTYslMUsO6vYBG7kquQQkghJX2awefUG+UoIdjFr+tl7cRbfmON5Gi57PX1e+9XAXV9cm433RBWWVNZRMrR7xSok1NIAu9BHg+Mvtf6B9aLktsOC1N/qds1yePoWz6nOx0XtaX6sb0+xx64uoR5UdCxpagtZc3ytc8jtxaFevx/3YbH8arUJsujTCpmn9p1PU6i6vXO3cDlPfAATp/HL3amGfRYbf1u6eA0NbLnVM2V8uVSs1eKu5gr1nrvHJdfzDT3Ud8jKvlYsTBzvqs8K81htTTYqn/dQ97OebX7PmD2UsjN0y5IMjceSbSIpfRo7fI6pK6pvwXl0qEiOMrqw7kEBHlA0SoWMpc5JbUhx2e+QTIhkQqVWTeREjF8bAgP6wJY9b3gigzmL8gQV1/wQ6vXBk72ATlgVxvkAZGBG4aTgJOAk4CTwB5KwAHPHgrbXcpJwEnAScBJoEIQuBOSk4CTgJOAk4CTwDgl4BjPOKXp2nIScBJwEnASGCgBBzwDReQOcBJwEnAScBIYpwQc8IxTmq4tJwEnAScBJ4GBEnDAM1BE7gAnAScBJwEngXFKwAHPOKXp2nIScBJwEnASGCgBBzwDReQOcBJwEnAScBIYpwQc8IxTmq4tJwEnAScBJ4GBEnDAM1BE7gAnAScBJwEngXFKwAHPOKXp2nIScBJwEnASGCgBBzwDReQOcBJwEnAScBIYpwQc8IxTmq4tJwEnAScBJ4GBEnDAM1BE7gAnAScBJwEngXFKwAHPOKXp2nIScBJwEnASGCgBBzwDReQOOEwSkB9/RYBWw8epwL+0vu75jQZXLstarfzk4mKOi2mGRisTr/zL9DDJxY3VSWCcEnDAM05purZmQgLygzfV1qNgQSK+MZXe7ZlYeEHuHbnJx9KzhNdYFMJrQOYBkPtUVFLVyfSommqWI0iFzDtpFjdzrF/yRHou9Nbv9b3OF30vvTepN84dBZripZ9LZkIYrpNOAvsgAQc8+yB0d8m9lcCT97xkLvDWbhG5+KfwF14ZhOGtwmst+kEyBz8BfMAP6vDFMgQCCOEDwlefxSuHlFTtOEUuqYpxCikTyDwB+HsBKRaQ5966zPy1LJf3AunHA5HdMz+XPiBe+rnm3o7aXc1JYHol4IBneufG9WwXElj7b7ce7zSvvjHJav8skQsvDoP6fK3e8IMwBDwJz5cQgYDw6Q14vg/hRRBEbvg/HgQxHX7TK4eEBKSElPQpGG9AIKTfMqcjPMjcQ5Z7kAiQ536WybwJuf75wNt8l++F71r4hr9+ahdDc6c6Ccy8BBzwzPwUugEYCZB95nz7kVd18uP/Gv7JV8yJy1HNbyL0JVEawKtBhA0gqEF4hDYe4BlNGhBEISGJflOrbN4hJLK+U1AkpFDgQyCUZ5AEPjkxH/qdfqO/6Tv1WyoDdPIGkuxIJuT6pwJx+TeXHr3+w+KOdxF9ci8ngUMlAQc8h2q6D+ZgL334uWdabfwLL5j78ai2ftoLUnh+hMCbh08sxg+BgECGWI4PScAjiJEoTqORBFFNA4/+kn8Vgo9TLwIl+qBvJASzH/Vv9RYKkJgJaXaUEyPKFShlCYSIkckMsQzQ6ixcRRL/QV34vzX/8o8+eTBnx43KSWCrBBzwuFUxkxKQd8J78sU3vTDr+L8sgzOvqs1582E9hhcmEAERHI/JjMd6NAIdj7Rn6m/hQ3rEgNRvBEJ+QPacXJEbCHUeNaS+0HhDiKLUa8IAjv6N/k3sh4GHGY/CKf6O2iD2kxEDSiHzDHmWs/9ClqXYbLbzmt/5iBeIX2m85Dv/Vog79YVmcmpcp50EBkrAAc9AEbkDpk0CT37g5uem2fxvIDjx2jl/MwiiHCLyIUMPkrDCB4JAwPMkfEIbenu+Yi6ezwxIsOqN/iZAIkcCTzGTggcpgFLAY9l6tNatC3g0ETL2HwU+hDrKLkTsqGRFmv3QtTK6XhN51kTcjtBOjqUCyScjXPr5uZd95m+mTe6uP04C45KAA55xSdK1M3EJXPjIC04lSfvXQs/74ShIan60AAT0FpCBBxF6QCCVs4Ag0KFPAhYCGXIqCCDok4CHgEgICLbxGEcChRfqplDfK3WcB8l0SSiAok8GGw1IzGjo38rGo/5DAJMqpqN0b4U9SNl/CIzoI4MkFpTGEEkTSFqIE5kk7bkPRbX4XzZe+qnHJi5YdwEngT2WgAOePRa4u9zwErj/gzfV5hL5M3l9+c7Aixv1qA4/qgG+D0noQrhCHmohqc0IHNQ1SF3mBRGDDjEcBTTEbshl2oOUBCLKdVqBCLlMk5qNgIiASbtV099GpVZ039iHiGLp04npsEecPsh4vLEeTrlig9yv8xiS/yY+RMBDLtkxkCZASiAkIZMEm+txK/Q6vz2fB78qvukzreEl585wEphOCTjgmc55cb3SEnjiw899cTM+/kf1Wv22+cYlBBEF3ZBnGqnJCHgIdDz1ZnuN9lID/V1nF2n2aFN+0vrtM4shrzWK25EEPqDvDPvR+jpW0/ngi1i2nhJ76PZRbRNgabhTqj1t5CEHBHUuMR9yNNAgQ0CDhAEoz9uQ+QaQpRyiilQAyRqQdpDES+ik4YORf+FNcy/6zKfdwnASOAgScMBzEGbxAI6BXKMfvvbEz4ULwS/V67Luh0dUnA3b/CVEKNhDjZiM5xPo+Ap4CEw8rR7DHIQgFRudpONz2OKiHAqUuzSBTqCBhz7pO2JH+ncGHm0nsuw9CuBIlxcWwMXTYICq8IXTbtfkuMAqN1K/dRh0IGJIdCBlG5BryNMWZJYCqQdPphB5CzJeB5JVxEkDeSz+7bxY/79dVoQDuOAP2ZAc8ByyCZ+F4T7xkec/Pc4bb6/VvW+u1zxQ0KdyCPA46FPhhHIMINAh9ZlHajS2wZiMAwGEHzHIsJuzBpLCVqMZj1K1KbtNATD0G6vf9JuAh8CLv+8BLDYoEVCZ6+pzGIAInHT2g8LlmtRu2u5D6jZ0AEFARJq0JiBbyGRLgVDShE8MKWkiT9pIYw9Jy/tCba5zR/15H71/FubS9dFJoJ8EHPC4dTFVEjj3kdu+LcbZdzZq8clGrQOPYm6I2ZDzAL/JbkP+0prhWM4BnmEy5AZdgActcWPL0QBTgI5hNbbnmgEY/ckoR79btiAGE/o+1B5zSl2nUuzo42zgKoxABrRMgCnZfSilW0ezoDYgWpCCGBB5u20iTzeBrMlvL2sja9bQadav1sKL/0vt9g+/d6omz3XGSaCiBBzwVBSUO2zyEnj0Qzf/NGLvNxePHan5UaSCP0OtViPHgYBYDDEfk0tNAQaxGXYIKNiI8TYzTgOGwWg1GzMZzUaMQ4AOFmXWw6Bl1G5GHVe2oVgM2XYo4NS4XdugY4Cvtw2l0itZEMlUZzhAzA4GMu9AIoYQTUBsQMoN5PkGZLYJmbTgxy34SQzZaqWdXPxK/fb5XxfCZT+Y/Op0VxinBBzwjFOarq2RJED2nMc2H/odBKf/+dzinIhCsttQlgHAiwR8UrURy+EgULXRe9oZwPy72/ivWQ4DBLlEk+2HXorxkLqNvNZK1ZnNeCxWom0/pTpO2X9KtZvNrLRDArXLajnr3aWeM8BjsS+2IVHMD9mBKAUP2YFI7bYOiU0Am5DYQC434SdXIZJVZHmMbC2Reaf5x/WvO/7DDnxGWnrupH2SgAOefRK8u6ySAIHOg+3Lb4+C+TvqtQRefRFREMAPPXghgY7yXuPcahwASsyG1GwGOJQnWvkyS9qo2KwNvnAY0KozhiNjtzHgYwOPBgn2authPgXr0WDUT81WqNu6gVCxKaPKM15zKmZIZXojOxB5v7Uh2e6zCUlvbMLHVSC9jDReR0C2nzhE3En/vP7c277LZTxwd9WsSMABz6zM1AHs55fvfl4U+/K9p5fz19Xml9lIT+wmiAKENfJgI9BRqjSOz2GPNZ0Cxy5ZYJwDWEY28Nh/W2ovfTwHh3ap5wiEbACy7D0MPpaKjtmQcbu21GysSqPvtbqOHRNMmzaAlR50bCsq3LoN8FHvyAmBVHAtIG8hJwcEeQmevAJkq0C6CZmuQ2RX0G6d+UQ9zF4jnvXW9gFcKm5IB0wCDngO2ITOynAe//TTGu0rCx+ozc1/W6MRIAhCzpfm10LU5+sqYwBnHdCxOYwplgdaARAW1rBnmrWkefM3KjabsdisxjAmw4wMUzIeacZOZOwztsebdi6wveB00Gk3qzGApnLGKXfuAJTfh0onMPBIasu4ddPfygVcBZ4S+yEnBHpfhcwuQuRXAEngs6JAKGlhdaX1P5a9xneI2961MSvrwPXzcErAAc/hnPd9HfXDH39mPd1ovLc2f+S75ho5Zxcg0KGyBMR2fLLxkC3HMBKTDaDIMGBKFehh2Ko2dg4w3yumQVkHlE3HAJcGmYIpGVVYr7rNdiggcDBqOc1qCjtRH28226utAEnN1jgFT+mgIBFCcJI5zaLo3xT4CnobDzid/UCsAfIqkD0FMPisKPCJryDp5Gi3m59YPDr/WnHd28g45F5OAlMpAQc8UzktB7dTn/3sS8KFJzfeujSX/2Bt/hi8IIQXKtWaF/pckM3ntDbEeDTrKDRmVkXQYuX22Hj6AA9Jk92dbTdqAwY2+HCbxvZiWJEBG+M8QAdZXmsMRkYNZ9RsvbYhG9DITqXifsgrjhiPpBQ+XPlUAQ9/ijkADcWGtFOEYnOkdlsBcIWZD9JLEFjhINO8fQkiO4/19SP3LHn5G8Vt76L0CO7lJDB1EnDAM3VTcrA79OD7T/1WUD/+r+pLx0QYepwCh1iOx0GiKjbH52BMrZ4ywLDtSlUOB8VrG+BRaW+6HQ1UAlCdgaBI+KkBp2A3Rk1me7D12HQKF2kbgGwWpDvPbdL1AuRF3I9yy5bkms22LJVLDmIeEvMQqGvwMV5y2ukgW4UA2XouQeYEOFchk8uQnUvIOzni9sYfzd32dW92DgcH+36a1dE54JnVmZvBfj/2gaf/mGg8/feiqAmER1GfEww85Lnmc8ZoZc/hWjgMCJqB7LhKdwCeLkcDVRbBZJdWmacVYG0FH816iswDxt5jB6IatZjlHl0Erlqu1Wz/se1Guh4QJyE18UJazWZKOBD4YAHAIiSoaF2N1W4qQJUUh5RgtA3ka0B+TavezisQ6qxAxpeRUExquvKLjee++9dncKm4Lh9wCTjgOeATPC3DO/dnz3yhyMJPBkeWFrxaDV64gPoCFWCjujk6C4EOBNWJ1YrSBNrKvs1QeoHHqLVMvVDlcECbdgk82lFB23/KcgcKhrZmPbDytpnAU+MUYNt5tnOpNsXhWL2m2idVm8l+zel2WMWmQYnLLCxAYBE5A04NEPSpVHLqRU4H5OW2DmQEPuchk6cg0jXkyXm2+aDTRJ5n3x4+590fm5Z14PrhJGDuMicJJ4GJSuDqR29cXttc+lxjqfNsv7EIvz4HL4xQnyOWo4CHmY4ODi07U4LI9h3sAR46sNjodf41rUZjJwO6Bv9ubDeq9BvfDIWTgvW77UbdFfOjbDQmwahyn9beaLYTg8nZZqft0eCTc543w6KMfUf3S85BYA5SRIU9SKChVG9sG6IOdyBkEzK/BpGTh9tlICMAugKZXIJMLqC5evJyGK58fePWtz080Ul2jTsJDCEBx3iGEJY7dDQJPPSe5/xpbWHu9dGCgF+fR1ivc3xOFFFhNhWb4/vGSG8HgxoQ2em6VYFH1xYtgKcsk6Bqt/Wx9xRu0sYV26jMDGPS4FMkEbVieLoSihpw6c4Dx6xHgxS7VRfOBZRZoQ4CGknebdoRAWzvIeAh1RvJi5KMUl63DYic8rmRh9tTQHYBSC8iTy4AcYq1a51PH1kOX+VifEZbv+6s8UvAAc/4ZepatCTw2D03vllGZ35vYW5DyNoCao0GF23jrAQUIEpZCNipQBv/u1yjDSk3y9SUY7MuwMb6HrAqknJqxqRje6gQnLLo6OO7ziW3a818jBeZrXYrcriZc63MA3Zi0ELdpmw7JhuBqvdDDEmBk8qS7XOSHFWGwQSkqmM8RPC8GjMeKu2g3K9J5aaBh9kWtZ5Cog2RdwCq6UMu1ukTkNl5Bh8k5xC3AylbrV9uPO/dv+oWp5PANEjAAc80zMIB7cPjH7vl+iD1v+Y1onmPkn7WFhBy7jUCHSppQHYNSoej43aMcd0OAjUgwRhEwNMLPjsBjwVcknK0sa5NORMUL6PO078b0JImcNXYdzTbKYrC2e7WOrhU52hTueC6U/GwIwOBhTTu0qqcNn1vXKpNMCnbe+hNSVLZvqPOUeBEDMgAkK4zxEGm5E1ArIfifM5Dpk9A5OeRdVbgpVeRrj+8KWvHX1Z75vu+ekCXmxvWDEnAAc8MTdYsdVXeCe+hF7/g/fX5zddHc8vwwzrbdYIQnIeNAkY9T22oXI6a7TvGldlelnZAaFXg6WVKtsOBZj1dFUV7gIiN+3aQqeWGrauUsqqr8Hrj2ts6hU6ZmsfU/uF5K3K9EaioGj6kQpOS1G0KVJTqLYCQxARDXaKbgEap4QQXnaO/6TtiPhRgSsyHoFSDD3m6UUqd/EnI7FEgu4KsfR5efA4bq/MfWxLha118zyzdSQezrw54Dua87vuoHnr/s94o/dN3LRzdDKL6AlcKhS8QBAIhxe0w8NDmqhOAmrgds6EXIxgVeAz49IIQ/duk0rGXv2FSJQPqBsJeBmNUdtrOw+BAhedUoKpSjRlWZDItGKcFlSZHsRiVwSDXed9UXR9Kp6PUkKyeI4D26FPndGPgoTc5G9R02h3qTwopmxAUYCovAfJR5OkTQPokEJ9HvFJDHl/8ifnnf+x3932BuA4cagk44DnU0z+ZwT9+99ManXD+C8uL2S1+4wb4jQzwM1avBaGPIDROBeqpnxN/mlLSYwWe3vFZXnJEagpbkK2+M7eEdjYwdh7tlaZcsjV48XemLg95tGlGwsCjnSVYZaf6QZ57SuVGYEMgYmw+xu5DLtYEOrpsAwOP+o2Bh4CNP01eN8ps0IAQlNtOAzSVzCYXa0ku1k9Bpg8C6eNAcgF5+ylsrtYfzefyFx591vsp/YF7OQnsiwQc8OyL2A/2RR95/9N/KvPO/udjRxL49QYQCi5TTYBDbwIgMvSTbafMNm2YjXF3NjIyAZj077yijcecK0H/K7mPUZkNkr/txm2pAAsQMi0aF2oCHGIw9KlBpKfkgrIrKQZkAkcF52IzmQpMDI/2dNNAR2o3Bc7EcEILeAi0tMpNu1krGxEp3qiUAqncLgP5I8iTh4HscaBzAe11D1689m8az/vILw2SgvvdSWBSEnDAMynJHtJ2KRfbyXMrjwSNE2cXFkOEtQQ5OREEAUJyMODaOqpUAEfi898msFIziV7ngoIy6ESZXbLt51ygHBEkGd17jlUAsNOyVylF7fIKik1ohwE7GwKzGlKvGdZjHACUmqxkVDqAldmP8d4zmQ9M/I7JS+eB43sIbMjORMDDwaUKdOhT5XpTQFR4usl5CNHQRe+olAIlqCaV25PIkweB/H6I+CLS5hqyzdaV1Peeu3jzhy4d0mXqhr3PEnDAs88TcNAu/9B7rv/ZhYXs36N+FvXGMupejDTy4VHmaco6beVg4xLWXMa6h2H0Ax5eqRWBh7zfpGE7tu1GSVulyOmRvD7MMCR1nLHRWHafLm81Yi/aXkNqM+MgoF2q1UyQIAsAACAASURBVPnmQorJqESgit2oFDh2XR8FoqV9SP9O9h7dPjslEPvxCPCU+k3lc5sHQIlFyfU6gxAdAJRSh/K5PQKZfQGIr0J2nkLWOod289hvLN32wV84aOvPjWc2JOCAZzbmaSZ6SYXdsrz26KnTreuiYAmNRgPCSyBqEfwo5HgdAhmTGgYUNFpUEjVD7KmpY3KdDQk8iu30s92o1KBdwEM41VfCxoHABh7jIGDUZiaNjWYidtCplfmavNfYVqPLaRvmo1Rz2pZj1HBUOM7E9VC5BHLB1vYgdtX2Ax1YSu7WBEARhKTcbnPsaq3cxlMIQSl1SN32GJB+BZJsPfFF5JsruHL5+JX5cP22hdv/9KmZWFyukwdKAg54DtR07u9gHnnf2f8N4dn/NLeYoxHVEIQeRChBMTxU+oBVbLqKKNt2GIjsOBkbfKy/TT0eZjz94nj6LePtgUfRHn2OaW4L8hQeAZbqzQCQbfcxCT6NbadMGkoAq9RthjlptZqpXGpcszXz4WMLRqjjfahAnAwhGXx8SAIlrsJq3Kq1h1u+CCGI9RAbIieFHEJQ4TjybiPPtoeB9CEguQg017GxGqPdbN158iV//iv7u2rc1Q+jBBzwHMZZn8CY5WdfEj7+RP0f5htrtwS1AB65TEcevJDeIdt4aEOkzNOqpLV2LOgqxqYUXFtf5rv+vKRLM2fiTLmRfoynyuBt7ze7P5qNmUBXThBqMlHrTNPCR84BpMqdmtmdqdlD35mCb0UGbuP9ZsplaxmwnUcHjBLwcHwP2XZ0iiCqZMoOB+otGHiI9RDwUFuK9TDw5BeA5AnI9EmIlNLoPAm0HsDatcaDSwsLt4mbP0R6OfdyEtgzCTjg2TNRH+wLPfGBZ3x7Fjz7Iwv+Fc9n4CG7jg08KkMBx6YQ6DDwmGDL/V6Gvde3/m0HmtrJRQumpgHHJBPVNhqlUrOyG/Sr2WPUcnaaHQO8Bni4JLaVjNQwKAIedjTQmQykBTwcU0TsKQHEVSCngnHnAcpaTcXj4gtA5xw2Vmq5yDZfu/DCj3/kYK9ON7ppk8B+3/HTJg/XnxEl8MiHzn4oDK77zoaXIaiF8Goeg48ICHxUwKhyCw7g+ZS+QJUC6PYgG/Hiuz5tB0+3vsBj6gX1qtzsJKBWnZ6idIJdTM6oGHu+s4vVcc0elauNY39MvjgDaBSUy9mrawADz7xmQHS8Bh6sKjsPMR3K3ZZe4pgexJfQWW8DrZUP1l/0qdftWoSuASeBISTggGcIYblD+0vgkQ/fcCb3Nx+Y90/M1bwGfAIeYjvMeAh8tHqN3aYV8HSznf1ehhWBp3CzNgBjirppJwTjsWbKIhiw6Preymhg1+8pSiloOw+DjAIelTJHV2VltZ2VlofVapSt2th4tNcbOyqQg8GmKhbHGavJ0YCA5zxkvAa0riBfe2zdz5efLV78Seda7W7wPZPAft/xezZQd6HJSeDed5/+mfrS0d9eCGsI/QBK1abUbAQ6DD70dK7r7XCqnC41234vw90Aj3KZNhkJlG2nH9sxYGVAw7iRG1uOyWhg+mLaIeBRQacqi4EpgV1+qrLZ8xAe2XhMZgNqjxwsmgDV6iHAySiH22UFPMk60LmCdPVxIBc/Hn3d3/ze5FaIa9lJoFsC+33Hu/mYcQnIj78i+NKljc8cP5K/tEGZp33BwONH5NFWMh5ypTabp5hVxmNsPIX3WZlIlIBHxeX0ARg+3gIMkzC0SBxqQMfy8NPu1wpIyvgek0JHXcc4K9D5c4BHcTzkXGAK0tHionIJFM9DbOeqSiBK6XPSdYj4KrBxHusr9U8uff03vkKIO3sjbmd8dbruT6sEHPBM68zMSL8e+pOzz0nSM59fXhSNGgEPa3p8eDUfIhQqGSip2nS9HVMGgcBHGd93YBt7JoOKjIeBhzZ8K+knn6qzShegYwq/GSAhgLCZjXGxthmMycBgZKJLLTDwaFtSEVxq7GM61xur1WoQPgWSquBSFZhKbSUqiwGxHc7fRgGlF5Ela0DnGvzNy2he89fE3Nrz527/xON7JnJ3oUMtAQc8h3r6dz/4h9+59DNe/Rm/3ZhfQBDlYL+B0GfGQznaSuAxhngq/KYzLhuX4h1T2Oy+j4Nb2B3wqJQ6FGdjqqj22HFsxwCTtbrwirMLytngoxOQcuAoBdraed50Gh0djKpUewQ4VKeHgIpKJmjgkgQ8pG4j0KG8oFe5SmmWrELGq/Ca15BdbQFi/Sejl33mLYNl5Y5wEti9BBzw7F6Gh7qFe9/xtA8tLdW+M2icQBABfiBVahxWtQnl1cb52XTWAkobcxCAhwI5uR4PRQsZkDC52LTXW2GTMUzJtuPY6jUrkNau92PihIpsCEpdqVLqmLIJVtodn5wMCNT1JwMT1elpaeBZ7QaezhpEZxX+tctoJ+GfN77hv73mUC9mN/g9k4ADnj0T9cG70MMff2a9c+X4Q0cXr56R4XFEkYcg8BCQqo0dCwzwUJoXy8bD+cZUTM/MqtoqA4/Jum0AwmI1XTYhzQhVvpsyo0MBairrgQIelRGBg1O5/o9KUioM4JjAUooB4mwPbYBq9JBrNa4x4yG2k8dr7N0WbFzA5ubx8/PB4zeIl36O0h24l5PARCXggGei4j3YjT98z+23pvnS3y8tXI4gFhBFvqouSlkLWM2mgIdAh50LOEuaSvdigkkPH/BY1UjtYnFG9Wbq6hQOCQQypjicchrI+TdlJ+LyEgw+obLxsOs12XqI9VCeN8reQA4GBDpUKoFcqy9CdtaQJwQ+qwhbK9hYP9IJ/cu31V/6Fw8e7FXrRjcNEnDAMw2zMKN9ePi9N75Z1K7//UZ9lbMu12ohAw+5T7OqLRDwfOVSTXnaVC4ytYlSYTP1xD5rzgWawRQVU9WYTOVRk3lajcuo0GiCDeOxy2BbVU3ZDmQzHTpHxewojzkCEeVMoFgPuXCrtrhkHQeaUoJQkiuVR9C1fhh4Ysh8nRmPkCuQ2WUgXockO0+6Cr+1gdZGAyI9/yONb/jkf53R5ei6PUMScMAzQ5M1bV196F3X/6GoP+1Nc/WUbTs1cqMOfYBsPFz8jfZND15AKXJ0gTcGnd50Ofu9DCs6F7BBR7ONgqEo5wDDPBRYGEDdCXiMx5txySZgYSTRrtdG5aacBBSwKTDh63kCOZ3AjIfOIscCnT6HGQ8dS22Tqk07GJCqjYNJr5bAk6zC6zSRNHOI+MJd0Tf89Q9O2zpz/Tl4EtjvO/7gSfSQjEhKiAfec/bztfrZr6tHAkGUIqpF8ALyZtPxO13AY+w5/YBnv4U2LPDYrEWl/RkMPNrF2uRa2wJOxsZj8qQSyOkKp8xyTGmEMlsCYaAqW0eMSCcMRU2Xwjbu1MQzU0jZgpQEPCsQ2SqQKPsOfYrOBtJWCyJe+1L4Df/9Bfs9G+76B18CDngO/hxPZITybvgPR6fP1cLrrosoY0GUIqxRFmoVOMpvXzsXMOPRucaY8aicbWUcz0S6OESjuwUeYjwEAFYqnS0AYycM7XUeMOW97TLfRFYIuU2sTpkJW3nRKbBTjIfUmKSSiyC8umI/RR48gqZMq9tWlK0nW4Mg4OkQ8GwAZO/p0L9XLkbf+DenhxCcO9RJYCQJOOAZSWzupHPvXTyeIHys3jgzF/hzqNUAn5OCarChOB5mPBRAaoDHJAo9LMCjb6/CicByq2atmonhMUCkA0vpo8iEbeJxFAiV3mzKZlaU1yYbkEdsh0BH53fjstlUUzUFZKwzGBDrWYdHHm3tdSBpIY9XgOQy0vYKamlyTHzzl665Fe4kMEkJOOCZpHQPcNsPvnvp5iCK7qtFJ+AHi+CsBbYL9Y7AY9t4pkFIwzIem7HYNh6rVHbhKm7UctZvRbkEW2Vng4+RiUkIqtiOsvMEyJV+rTvzgy6JzWWwSe1m2Bc3lTHwSEqdk60z8IhkA7KzCRG3IRMCnotI2hchs/SZjX/81UenYVZcHw6uBBzwHNy5nejIHvjj+itr84t/EQbHEYRLiBh4tEMB23iI8RD76cd4ZhR4ChZiAEO7NBcBnkbd1pv+xjgK6HQ7BfAYhmPFM7GbtLktTQlsk+ctgGS7j8V02KON1G4ETCE8zl6gU+ZwfwmlyA0hVaDDwLMBpBsQSROi00GerEAkl5C0L6Cddf7R8jfd9zcTXTyu8UMvAQc8h34JjCaAr76t/s+Xjh15i+8fRRAuauBR2iOTHNQGHo7j0cZy5dVm1EyjXX+8Z1VkPHaS0H4BpNreorzclNG/245lB37aajfj2WZuRxN0ajzctLqN3LalAp2yrLYBQV1W26TNYcZj2pOQMgPyTUgGnw0I+oybQKfNwaQiu4K0fRHrm83vO/Ft9793vPJ1rTkJdEvAAY9bESNJ4It/ePTXT5yY+3nPP4IwIuDRFZeJ5WjGw84FvnGnpidyelinOJOAcuvoTXmky4/5pGGAx3KnNq7VliMBx9z0Jj/tFxzKLKnX5mPHNRn7kEkWSi7VJZCpmCgVw0MvYjwqTxvF8yi1nImRIqiSkhjPJr9lRozHOBaQqm0TXrqCrH0VKxtrP3Pq27/2/4xZwK45J4EuCTjgcQtiJAl8/q3P+MPTJ/Emz1tCGC0gqlnAQ7E75GhASQo4gJSi6sklmLZCSpXDmUStJ/KRujDGkyoCjx3HYwJfC7fo0llAZWgwIELdNCq1HmDpAiTTB1vNZmW5ZrZTesaxRxu/OHxUAQ9nstZPAOb6zNIImQh4mpAafJBRklCqydOCTJrw0g3k7VVc2+j8u9Pf8Xf/5xiF65pyEtgiAQc8blGMJIEvvPWWe06fiP+J5y8ijOYRWsBDsTwEPJwdpy/wUDZRAp5peQ0LPAZMSrVXAS6aiZBKrMzMoI5XGQhK8Ck91AzzsW9Hy/6jAUoxHhWUyrGmmu0otRsxHGKTpmKpBilj55EJZNaCTJuQeZNjeSiOR3aayDstBHkbeXsNV9bzt5559affPC0z4/pxMCXggOdgzuvER/X5t976F9edSF/p+XMIaw2ElqqNSyH0Ax62TdiMZ+LdrHiB3QAPacwME6HLmVgei+kUaYFsoLLtOAaMbJZUZjZQAGVy3RHIWGl7rHLc7PXGReCMek6Pi1BKZgp4siYzH4rnySltTrsJGbfhZ22gvYnL6/I9Z17ziTdWFJw7zElgJAk44BlJbO6kz7/1+Z+87kTyci+IENUaCLjEDtl0qBgcFYHzOYaxi/HoKp2lqm1a5LjTbdD7W++mT2Owgcc4BOjvCy81BQJ2HI4avbH1GPCzAMmoy1jNpp0I2K7THcNDXm2m3LbK+E32HstTjrLm5Dlk1mbwQU5vEzTaKoBHtjdxaVXcc/13/eV3T8vMuH4cTAk44DmY8zrxUX3+91/4ydOnOi8nkIlqdQQR1d1R2Qp8nTanTBKqbDwqhxklCTU2nol3c8wXMAxCgwtt+F1lDEoVXFnaQJ+jAaifuk05Cdjn2n8rUMtJdUf57jTDMdkL2LnAZE1gpmNif+jTBKKSR3WOPIsh0zZkTmUS1pDHFMvTAojx0PftDVxcER942uv+6vVjFpxrzkmgSwIOeNyCGEkCf/cHL/7YdSfb3xYEAmGthoBKIRxq4DHMx1Lb2dm39d8MGIXbNUXZqOMVa7FVfiXI2fV3lBebSkrKL+1ZZ2rzFGo2vp4BMAU8Mu0gJ5Va3oHMN5B1KF2OZjwEPJ1NXF4V77v+tX/1hpEWhTvJSaCiBBzwVBSUO6xbAn/3+y/609Onm68P/EAzHqq5Qxoecp8mVZtdFoFS5pD656AyHvYT74nZKWvmqP2/tOMoV2jj+WbAx5Q4MHIugciwGwIcBigbpJSPuqVes6qZFoxMAjnZeDrImfEQ8LQ08LSBhBhPC3l7E1dX8z86+7pP/ahb704Ck5SAA55JSvcAt/3533/uW09el/xo6NURRQ0ENQnPxO1QqeuQ3qoeD8XseAQ83kECHm2bYRdnzSy2ZB0oA0NNFmkTUNrt0WaDjwU8urQ2JR8tVGvFHdvrmq2zGxTqNp09gR0LCHhSBTwZgU7Mtp6ss8lqNiQdeAkFk7ZwdbX5W2de99mfPcBL1w1tCiTggGcKJmEWu/D537/+106cqf1CJOYQRXMIailXGSVwIbsPlUYgew+5VlMcTzfwEAiR2+8sjtxSiRkWswV8NAsxhd2KFDdlNgNWlRk1GYvBAJg2Gxkw67IhqZidMmWOgTzDeIyNx9QE0m3KHMh6gSdGysDTgUjbCnjiNtZWrv3sydd96bdmcWZcn2dHAjN568+OeA9uT7/0B0d+bPHE0u81wmVmPH5dAQ/ZGtjWQ4yHKpCSo4EfwGe3N8N4Zhl4DEiYfGya7Rjw4TuqRx2m7Tom9sYElyo7jXErsFRr9l1pp+nRRd+UXUhfhzGO5GpcqFW9nlIdR4wnh8wTyDRGnhLj6UDkKVJ2LIiBrAWRUqbqDWyuXnvj8e+8/z0Hd+W6kU2DBBzwTMMszGAfvvaOxZcH9cVPztePcxyP18gQEOAQ4/EOG/AYELAAocsOo1lKj2s1J/fs51BgwVHpcKBKXSsnBF2slP9QtiVOQ1SU2rYrn+oYHgogTUjFFiPP2xBpgrwTQ8YpB5QivYo8vYqk3X7ZkVc+9NkZXJKuyzMkAQc8MzRZ09TVe+9eflbkzz803zgOL5yDP5exGzWRmoC8DOhvdjAglRs5HmiXalWkRwU60sEcoDJrLxPLs40nGgNDt6eaqmptOyDYIFWq2bZKQv1mClxr32kGIW5TKocDVYTOlGjQrEcl01GMhwAnpewFmvEkCfI4Rt6hWj2bkOk1ZMk1xGnyjOPf+uDjszYjrr+zJQEHPLM1X1PT2y/fjWjOO3F5rnFmUYR1iHkgJNWaoGoIlCh0q6qNY3k4jkep2gQdPJOv7YCnVH+VbtL0nTpeQWxvwGh5TmH0KsTS615tH0sF3tTvXPraYjvkfm1UbYKAnYGHbDxa1ZbGzHhkkiAjVVvehkzXkMVr6WZTHLnuNV/cnMlpcZ2eGQnM6p0/MwI+qB2l0tePiuPnGnNnrpNBBCx4qAU++1+Rqg3k0ca1eAiJAlWFlEpeG5WQRw4Hpj7NrElJbfhlvjRiNzYoWF5qXXE6ZdxOEdzZG2+jAcqo1Lpje7rlRNBDqjbKVlCUYODUOh74CYB6ydSIgkdTwKjaGHgy5PTvuI08T5EnTcj2lfOLr/yHs7M2G66/sycBBzyzN2dT0WMpIc6/79iXRHT9baD0OPMaeISAT04GRGoYeChZqC6N0AU82sV6KkYzSieMfaY8tzspqAKiwhGAswsYwKJs0lZWAaNK23I3luo4xWgMayLI0SpKSZBj8rqZPHHUvk7PQ8dxDA85F6TsYABiPh0J8L+byNIMMs3gtZ/67Ny3ffFlo0jDneMkMIwEHPAMIy13bJcEHnvn8jsxd/MPBFEGzAnUwgCBJxTjIbUb1eXh7NRUIiGAVxSAo2SWuhhckd5/1oS7FXjKDAQl+ykzDOjvzHiL4E7bfdoCMbYRGf1cmTxU2Yo08BDbsUsw6ABd5fRWAg8XgcuI1SRs51GOBZTJgICHgkolsjSEaD7y/y6++u//11mbCdff2ZOAA57Zm7Op6fFDd538F7Jxy+/U6xvwGj6iIIBPsTselbxWucV8jucx5a+pNLN6Kucs1R7Rolldgv2AR02Nnf7GlMPhH7r+YaqI7lyWiFVlhikZdR4Bj3bKEEX5BWPXMZ/6PLLvcByPVq0R2BAAdQiICJAkg1InWYK/ef8blr7r7943NQvMdeTASmBW7/oDOyGzNLBH3n3Ti5Lw7Ofm6heEFy4iiHwFPJyzjTIZqGBS8mwjGw95thHr4fQxwld/MxDNomdbf+DptvUolde2LxMcWhCk8tjus7SKrlC1MYqx/cZUIFUytcoqsKqNyBGp2nLkzG5I3UZOBQQ6KfJYAgnV8LmGZnwy9+JzNx591acfnaU16Po6mxJwwDOb8zYVvX7ynpfMraP2yHx04aTnH1XAE3jgRNQ6b5sfEtshlZsBHq4Op8o2s7qN4k8OEvD03FIaADQX6jNv29+CpQu1Oo1wypYUsx31S+ktV+RyA3ICp1yXRNBMR6nXEuRJDhkDSMnh4yI2OkefPJFt3iBe+ZfpVCwu14kDLQEHPAd6eic/uK/+yfP+arHW+hZBwBP6rFpTyUJVeQRiPQw8xHg85VBA9h7ycCN04s+ZfG3HeLbeUkrDNuytplCmYDQMPKoEgoEa/p1VbVqAxe+K7ag4HwmZkT0nA2ICnAQyz4BEIosziIzavIxmy//oiVd8+tUzORWu0zMngWHvhpkboOvwZCVw37vmfqk+f/2vBsEcvJBS4xDIKNAh8FEARIBDzEflbGPwOQDAo1Rbk3op9Vrvy7Ae7Syt3Kn5IO2JYOUszTmGB5CpAh6jYmMQynJklBxUUuaCFtLNy/9y+VUP/s6kRuPadRKwJeCAx62HXUng/ncfuy2PbvrsQm2zTvnYGGQKV2rBQaLsVh1q0OH4HWI9iu1Qih31mrWlaOdq25UIdzjZlolWqumviOkUL5X6WouRaRI7HzDjyRXjyQl4YuVQwCCUSi4K54kO2nGt7XUuPv/Iq/7hwUmNxLXrJOCAx62BsUngs295SRgdyf/HseX1F/tBA74fwQuFVrmRHYfcqillDgESgU6kGY8KcuSs1TMHPGb3nyTj6b1NS6DhdDyG4dBhJu0QH5IX8T7MeLgAnH7HGbKY0uZIdiwQOQHPGtaajS+cFsHLnH1nbLeFa2iABGbtMdNN6BRK4Mt3nf3ppaP5fwy8ZfjBPHux+Zy5QCUNVTYe8njTwEOZDjihKAEP2Xj6q5WmcKgWSJoM1JPqZWGl0Sl3bGao2Y/Mi/wJhapNpSpATtkKSK4aeJDkyBl4UuTkWh0LeLIJIZ5Cq+n9Hydf9ZV/P6mRuHadBHol4IDHrYldS+CR95w4k9eDByP/aCMM6gp4IuNWrYGHSyMQ2wlV+pyidg8xnnEsw942JukpZ+dq27X4FEvZ8tI2G/7ecpM2IK08B9S7qEJKajZyY5Mg2FFp2killmsvNgU89O8sJs7UQibPNzPg5pMv/9qT4xiJa8NJoIoExnHHV7mOO+aAS+CB95/6RBBd/821QCq2Q95tmulwQTj2aIvgh8q5gN8hORmYTMq7BQqbNdlt7bbdfhM3RuDhYNCtwGN7s3UzQj1O9jIw55kxKuAxCXUksZ1ccmYCtu3EBDgpQEDUkUhlhlw++qmT3/rAyw/48nTDmzIJOOCZsgmZ1e7c98dnvk80bn3XfHRFEOgwwDDwqNIIlLEg8CMIBh6VyYDZDwf9lG7C24+/K4JlG4bQbznT5mzO7fd7b7v9gKr3vP0EHhq65VNNtIbUa4YBaeAh+w4BGmETORJQ3A5nK2DgSSHjBO1sEUjO/cCp7/j7u2d13bl+z6YEHPDM5rxNXa8vfOQF81fXxP3H59bPiOAUvEgCIZXeMao2cjDwERjvNkqvE+gaPRx1X2VIvaBgsZyudDRmb6bjydhuAc8WXNGsoUhNo7zCihersXqcCLhktTlip45XZVvbHdev7cJ9TXfAtgWZv5WNh9VsuYrXIa+2rJOwZxsoM7VoYWWtca4ua7de95o/d2UQqiw/d8zYJFDpdh/b1VxDB1oC979j+dfm5k/9QhQeVaATCYBUblSbh1Pp+AjZzkMZDugdcTAp+19bEffbg5CxaVgbtZ12xpauyidj6gJYv2jbiWEIXXu+bVfpAZ/emesCnu3sS1WBZ5hl0euIsRV4FNMh8CE1G9l3yLYTK4+2JAXiDOtUCqGz8us3vPq+Xxzm6u5YJ4FxSMABzzik6NpgCZx77/XHW8mprx1ZWD2OYBEiqkFGxHpUeQRmPOxkECJgdVvEb1A1UsqxY2J6OPuyeqlSA+alGQxlWyaDO7sRq5o0uvBM90wUTKdngtgAby39gu0Y4OkBjD42mGoMba8WhmXjIbcCYjoEOmzfIbtOgrTT4k+RSqCd4Xz7aDvy1m646TWfvrhXvXTXcRIwEnDA49bCWCVw/9uuu3NxUfyyHx0DojmAWY8PP6KUOZRCh8AnRMCBpgQ8dQif0EkDT2E7t1VKJm6Fuqq8ttRLVdfUEZOWdxixHQKnMqZFw5jWupXMhvy/7AzQRbtdWdHomr3gNVax7bKxUh5UAoGDR3OJlNymUwKdFFlLQKYtrjSap9dw8dryf7zte//hX+3ywu50J4GRJOCAZySxuZO2k8DD73vmkSCT94W1Iye9MAJqIRBKeJFKFup7FM8TIAgi5V4d1AG/rgJJid2w57DO6swJNqmss8q8rACCs172AR76znxPgEPAk1m2GL05G9Uct2GpqQrWowHNsCUGOdsOpC/NAFnh9jEqvYkuGTUOBhxig2TXyXOkaaqAp50hb/uQSRtZvAmZrWxsNuVNN/7Th5+aaLdc404C20igwp3jZOckMJwEHr3r7M95jVt+oxa2gGgestaBV8tVECkDD6XWoTexnTp8vwH42tGA1G1cUkZV1cwpkSixIfgaeLISeFjlxtZ//R39m/5pQKh0LCC7hyAgYiBRjEd9Z9R1vWO01Vfb2WomYcMZTtY2QyP36ZwYD6nYsgwpqdmSHGmbnAoSoAUk7QaCzkP/5sT33P9Lo1zJneMkMA4JOOAZhxRdG10SIA+3tQ3/vsXG5lkRnIAgTRqxnpoHT4SK8ZBrdVCDR2wnqDP7AbEeDixVYEPF4iBCBh1WxTFbIVAxAEKfGnyYwWjgMccw6zFsICuj/LvYDqnrtMquSD1jWI65PXrjZRjdpmvW2W+a7Ds5sixTb3IqSCSSZgq0PfjJ41jZCM9jef3GZ73ykfZ0DcD15jBJYMrunsMk+oM91q+94+hPRQtnf6ceCSGCebbziJpUudw8ci4I4YekYqvDo08CoSAEKKsBe7lRgTJ2jdPgozMcAgQlAgAAEoBJREFUGIApgIbKxxBwWCDElWhIzZYqsGFw0qBkVGd8PkX3U+YzrXYzzgoGuAoHBmUr6n5Nya1TEDPyZMtYxZalKQNPmiRI2hJ5K4PX7iDurKC1/uhPPfufNf/LwV59bnTTLoEpuXumXUyuf8NK4Mt3Py8SWfyR5aX2K4R3CiJqIK+loJQ6lMWAACigvwl0wroCIXKvDoj1EPhEEKIOiJp6k3827/70ZG+YTKr/NmyH/k07sQIaBh9+q3OEZgXq3wRYBoy0+o4DMY2azgYqrZ6rYtMZVlC7Pd4AD4FOpgCHQSdNkcQx0pYP0WkibD+Ky6uNv1y9duTVL/2JzyW7vaw730lgNxJwwLMb6blzd5TAg++8/hYR+H8b1Y8v+bUa8kjV5iHHAs8j5wICnRq8sIEgUsDDDgkEQF4NQjQ08NQBRErlxmxEvxmACEDo3wQ6mv0gZSM72XQM+Mg8IYuRtu2kEIYF5bQH223aTgfGg44Yz15loh5yURmfiSxFSm92KMiQJDE6nTbQyhEkOeKV8xuJl/yjG77nwleGvII73Elg7BJwwDN2kboGbQk8dNep/13Wb/zNqNYRxHoEl0yowfdqCOiT2E6twSDkRwRCZOupQfgNBTwegY8BHlVCQYEJqcgs4GHQMYxHsxmZKC8vkMqNjO6G5SSaARHTUcAjJR1jARBfyDgykHt2760yJbeOBp4sTRhsjIot7nRY1eZtrCHebEB2nvi5G77/wm+61ekkMA0SmJK7ZxpE4fowCQnIO+Hde8stH59biL7Fi5aZuPhhhMCfQxBF8CMCnIYCoQJ4GhAevecAerPKjcCH1G3kY6AcBgQzG8Vy6G+lgtPsh37LkwJwlEcbgQydQ3Z1indJ4TG4aLbEqjYFTpy4U0iIrpghy4uNgWgKbh+tBSSgScimw3E7MdI4ZiCqr1/A1Sutv3pOeOVV4o7C+2ISU+3adBKoLIEpuHMq99UdOKMSeOQ9N5xZSU9/4fjyxinpLcIP51X2gqiBsKZsPEFEwEO2nhpEsKBBZx7wlwBWuTUAEBCR44HiPSAAkZ3CpqPsMwQiMYCYPyWBjSQAUiAlGHyICdH3CnAE1N/0XeFowA4KFFxqYn36uU5Px+2TZznanTbSVCJtC2TtTchkHXnnIp66cuTJheDCi256w1MuQ8GM3j8HsdvTceccRMm6MXVJ4KvvfuZranNH/sz3It/3yYON7Dl1RPU5zXoIfBT78YJFfsNbAIJl9SnmACwqDzdmG2R/IeAh9mLsPMReFODQ91K2FBMiYGFbDgENgU6sgCgngDJAlUAwEClHBVWqgJiUifPpdamedCG46guo3WohpYDROEO6SVi8jqy9geb6WirzjVfc9H0XP1W9NXekk8DkJeCAZ/IydldQ1ZnFA+++/t/588/42dBLIPx5Bp6wPo8gmoOnGQ+xoKB2BF6wBEFsJ1hSrMebB+Sycq/2KGBUgww6loeaBpECeNY1m1FqNsVyCGzoHMWEmBVBgQ4Dj1bBEfMx4GMmsACh4osKt0+hqpvAMpBgB4IkjZHlEkk7Qb4RI29fQ2tTwkuu/l/P/L7zvzaBK7smnQR2JYEKd86u2ncnOwkUEvj4x18RHDn38PuPHDn9OrLviCBCWJvnt4gM46kjahwFJRn1gmWI4Cjga/aDY4BHth7tYcbAQao2AhPtaEBAkncgQEyIHv9LtZqgYxloOkAeg/4tWSWn1G/8mStHBGUrstmOncmgz6SOFWCq1CcCYrLjxORUkKgs1GTb2dhEvN7ClYuPvuNF5zZ+RNzZt7ypW5VOAvsqAQc8+yr+w3fxRz9w+9G19eDPF5f8l/rRArtSh7U5BLVS5RbNHQEC+o2YzzHNepYhxCmtctNlFFg1RsBB4KOAQ9LfOYEOvTcshwICmhjICXyst2Y/pH5j7zey82gnBeWSbcDHyutG3/GdU/X22ea4nU7fKcebEMiSFB3yXEvpk1hODHRiZJtNXLm8/hdStr776970lKuzc/husZkYcdU7ZyYG4zo5GxJ44L3PPiXz+C+DhRufG5C6LaohqM+zfYfcq+uLyww8IiTGcxyC7Dz+EXje0wGP7DyUzYBYDyXEJOBpaTBRIERea0K2ILFeAI8CG8WQRE7Hk+MBARb9bavhFPDQW7liK9uOulF6HQ3s26caS6k8Q32AR+U3FciyHHGrwxkK4k7MzEduNIF2imTt3D+Iuca33PBPHrtW+VruQCeBPZaAA549Fri7nJLA/XffdPJSy/v0mevmborqdQThEoJoGX64CL8+B2I9XrQEEOsJifUch+ffAAgCIfJyo4BScjBIIPMmq80U6GjGw04HTSAnB4MYOTMZpWpjEOLvO3wuu1iTek4oLzhmPF0peMjJwH7ZmQxsJjTC7FZU0XHmaSHRjjsQno9OO0bWSpjp5FTkrdnElUvN+xrh2stvvuPCpRF64k5xEtgzCTjg2TNRuwv1SuAr77nhTCKO/cXCPG6t14j5LMCPltjG49cWETSW4NWI9RyBCE8C/g2Q3lF4/iIkebmRdxs7BBjVGdl3FLAoVkM2HuP5ptiOJDUc/U4siY5BW9uElJpOuV0bdZvJ80ZZrE0i7J5bpiifsN38jpjBmi7NLuPqwlRNNMtTxCmNEZx1OllvQbZjJM0WVje8e+fyq6981h2PXHArzUlg2iXggGfaZ+iA9++hP3n+6c1O+4NzC8svbjR8hMR26mcgCITqcwjnliCY9ZyEJMbjn2CHA8Hgo/O3GecA7S4tyI7DwEOqtray67BDgQahnNRwTVbRMQvSYKTsRARcivFIzniQQ+RW+YUu7mODyogAs838EhHKqYQ1Z87W9XWyBGkaI213kLVS5M0UnfUOxev8fRR4r3raG564csCXixveAZGAA54DMpGzPIwvfuD2oxuXVt955szZV9ejJqK5U4rpRIvwiQmR2o3B5wbAOwkvOAGQ0wFnNaA0OkbdpbJSK9doApBVgFRpGnDI9kOxPR595pv8NwGSyNpa7absPsR6CHBy7V7t8d5vavfYt0xVsNkpy0F/VR0BDqW/IaZD9XUoAWhMKXHiFrJWC2h30FrzsXL16keXl707nvW9j6zM8hpwfT9cEnDAc7jme2pHe/8Hb6ptXEt+Z37puh+fm0sRNuYZfLwa5XKbR9Q4AuEfhfBOwAtOQ4SndXxPXReNI+M+ORyooE+VoWBdMx+d4UADj3JGaEGyqo3UcqR6IzdrE3xqEo7qnHCmXs+W+tdGnOY26gWiHucDc7hRo/G/dT0gXdDOmHwI6MhjLcspxxz9naATxwjSDtorm4j///bOJ0aOowrjr6q6e/5m7bVNNvwJmIBDwkpIcEGykHKGC4pAG1kcuJATcEBWjnDhhJJDFCEhwSFcOLABJIQ4cQiKxIkDEhJxgsAhxEaKHda73t3Zmemuquirqp7Z5dKO1Ane6a9X4xlPtVrdv+715/fq1fcmAymnt39cyeDq5tarKMnjRgKnhgCF59TcqtU/USwyff3XH/+u6n3o+X5/rvLhQHRvTXQxDNY68HPTZl2yfEN0/mGRbF08FpbWDeNgp+PRKhubFaXSep6QaquLCmKpdfBrC/M8cDHA3A/+7a7dDaLDQRCxupVC8oc7eReO/fosmtQlMYH8HdOhk5+PD6CPTm1OqsP5o4YOnUTLciYuCI8NLQ7mKCyYlvLOzYOy8G9/5/Fv7P109Z8KXuEqEqDwrOJdPeXX9PdfXfzi3K2/dH791sMqf0j04Kzkg6EYtL/WWXSuNujxMxYp+tHbzYzCKzgcoImcNiKYmwlzPYhuIDTRKicaisaSawhSiHZcdDCI3U2juWjdm2fh33ZCfFDYYGIMpJZttMOcTN2Oe9FfDiIUxWbxnqKnUK3mID6orEvTS14H4UElHoxOy9lM5od3RZfvyN2jjddMtfPUY1+/8ddTfpt5+h0mQOHp8M2/ny/99d89ekFNpz9RxYNPjh7wpjfMpNAPiDJaHCxzNOx0YLUD4RmEVgpooeDNUJTpx34++KltclLbhFAsENbpJCNRCA/aJfhSXO1wjeICVfu/1XM7xyx06kq2kNRb9umJuoRaNKTPIEzQrvi+yLL9z/ocrBVCtVrYz3qB4ae3KoiRtYh49oIH22RibHn4n+3RoP9trtG5n59cntu9EKDw3Asl7vN/IYCWCtc/9+CV0vaeG6/1H+pnY8mKXFRhRHRPvELkMxSVKVHGiGRGxKDvAoQH1jomyEJwHwjrOyETCCuiEWj0Y4vFCDHSiWNwpfaqbhBXz8GkdFiKerCPKHynxYf0mF647JwwtE4CVItPHfHUQJ3AZ60UqfriUUxQleKtFou1OeWRlOWeHE3LnVztPPPIk/svqmilwI0ETjUBCs+pvn3dOPnrv/3kxnS/+tFoXHyzX1RiYKfTG4vk/SA0ykSnaKW1eKTYdCba5KIUUnMmFB/EVz3/ksQoKIQTnSrW6h48UUFQTh3FJkYwKYUW0mrLSrTl0tJYuYYh5VNqLUVAcaFrjIRQoRZ+FtZvNgpOWYirpuLtXLwdiq3+K0eTQ3ew617qj/zVz2zduNmNu82r7AIBCk8X7vIKXGOIfj77kcuVWn8h18Xne8WOZCg4KNZEZVpE65CGEwiPgvjEz0pjvgcl1xCgk/ZqIXhB1u6YkCzNQWPkE/NkcT3NMtioU2wQvFqQIC5IkSG1hiKBej4nRlVhOajz4sJ8Tmy74CBS+KOC+CgRty+2mslstiFH5fyasre+99i1t/5Ao88VeIB5CScIUHj4QJwqAn5bzBv+/BUn1Q+VHl/sweEgr4L4qCyLQmMytDkN0U8UHvTw0amPT/RUixoUH/9kgZZqAo77scXPJ3vz4CsUFZjkkp3WDqkq5sCcFuWj0KXwJ1n7xPkb5ypxtgzvMeCy4iuIkZL57ECmB7dvFFp+8MhTuz9nWu1UPZo82fdAgMLzHmBx1/uHANb92N2drzq1/v210f7jWpUG7bFVNkqvvqgcUU8mXpnYLhutrJPgLEQnRD3p2/BWO0+nXNjx1teL6ZVU9hxKqCFMlSiFOSJENamgwKV9QpYtRk1YBIqiAeeSPY/dlblMZeoLW07PvKqr3We1ufBLrsu5f54znsn7Q4DC8/5w5VE/IAIQILd3+0vixldVfu6JzBwMs8yGtJvK+qJMLoLCgxQ+YK5HY+4Hc0KY98FPaKcdF5/GDVFMKpNeXMeyTLrWp5BaqyvZkDILRQqpeCFUtGkRa2L6DXNGDlVqUymtk8rnUtreobi7fxL/9rNeHb6yuRUaC3EjgZUnQOFZ+VvcnQu8/ouzn6jswdNWj7ZMb+1TvWKkw9ocVYnWWkyWi8mKtEgzVqJ5RC1Ix2FeCNKzqFrDZ1Su1WK0/FUJJdlhZ0Q4UVgURKb2egtGoyjRxrxNJq7KxMH2BgtB/dxaO/mnq3a2VdH72ebWnX935w7xSkkgEqDw8ElYOQJ/25ZCTcePzo7clWJw9mv9gbqYZZNeqGDTuRg1FK16ojT6+mRhvqauTgsVZ6hcCxk4fAaeOhpKIoSUXbDRgfagjDq9kHILZdZw+DyIi1Kdl8pl09lcv1mWh7/RXraLjTPXLn3lH7BT4EYCnSRA4enkbe/ORaMY4frR+kdnanrZSv/LXl24XPTOfNq4Q8n1TDI1jwVwWJQaRGdpOYr/li2Epy6BO556Q8QTUmpGbGWkqgqp3EisrDlb3XlL+b0/5/rO743xr1zK995UW6GnNjcS6DwBCk/nH4HuAXjjxYtnndy65O3kCevkC5WTh0Xr8yorRmJ6A2XG50KrH8gO5oKQkot/D3NDCGmcPdp3djZ1rpxINd8RZ/+VKf0XbUZ/dO7Ma5vfurHTPbK8YhK4NwIUnnvjxL06RODllyX72M1zw/m0ymbamdx67XrK9zPlJjNTFaO82ty6fdAhJLxUEmiVAIWnVZw8GAmQAAmQQBMBCk8TIY6TAAmQAAm0SoDC0ypOHowESIAESKCJAIWniRDHSYAESIAEWiVA4WkVJw9GAiRAAiTQRIDC00SI4yRAAiRAAq0SoPC0ipMHIwESIAESaCJA4WkixHESIAESIIFWCVB4WsXJg5EACZAACTQRoPA0EeI4CZAACZBAqwQoPK3i5MFIgARIgASaCFB4mghxnARIgARIoFUCFJ5WcfJgJEACJEACTQQoPE2EOE4CJEACJNAqAQpPqzh5MBIgARIggSYCFJ4mQhwnARIgARJolQCFp1WcPBgJkAAJkEATAQpPEyGOkwAJkAAJtEqAwtMqTh6MBEiABEigiQCFp4kQx0mABEiABFolQOFpFScPRgIkQAIk0ETgXWjQEDUkJcCAAAAAAElFTkSuQmCC;" vertex="1" parent="33">
                    <mxGeometry x="530" y="100" width="210" height="204.42" as="geometry"/>
                </mxCell>
                <mxCell id="41" value="&amp;nbsp; Dividend..." style="rounded=1;whiteSpace=wrap;html=1;align=left;" vertex="1" parent="33">
                    <mxGeometry x="20" y="140" width="300" height="30" as="geometry"/>
                </mxCell>
                <mxCell id="39" value="" style="whiteSpace=wrap;html=1;" vertex="1" parent="1">
                    <mxGeometry x="40" y="43" width="760" height="55" as="geometry"/>
                </mxCell>
                <mxCell id="40" value="&lt;font style=&quot;font-size: 26px;&quot;&gt;Division with Repeated Subtraction, in JavaScript&lt;/font&gt;" style="text;html=1;align=center;verticalAlign=middle;resizable=0;points=[];autosize=1;strokeColor=none;fillColor=none;fontSize=30;fontStyle=1" vertex="1" parent="1">
                    <mxGeometry x="105" y="45.5" width="640" height="50" as="geometry"/>
                </mxCell>
            </root>
        </mxGraphModel>
    </diagram>
</mxfile>